<svg width="53" height="60" viewBox="0 0 53 60" fill="none" xmlns="http://www.w3.org/2000/svg">
<g clip-path="url(#clip0_95_439)">
<path d="M29.5514 21.9458L26.0236 31.8521H31.4382L32.9355 36.1593H24.711L23.2958 40.0562H17.8402L26.5569 17.0234H32.5869L41.2832 40.0767H35.8275L29.5514 21.9457V21.9458ZM52.1327 49.183C53.3089 47.6971 51.3371 46.1414 50.242 47.5594C33.3313 68.8705 -2.63766 53.7635 3.22324 23.599C7.85273 3.79289 31.2844 -3.94793 46.473 8.56828C45.9984 9.90152 46.4405 11.5191 47.802 12.3199C49.8211 13.5075 52.3586 12.0149 52.3586 9.63972C52.3586 7.42183 50.1463 5.97433 48.2093 6.75902C31.6447 -7.09243 5.92535 1.3371 0.857694 23.0176C-6.03832 51.9978 30.2578 74.1025 52.1327 49.1831V49.183Z" fill="#0D0D0D"/>
</g>
<defs>
<clipPath id="clip0_95_439">
<rect width="52.5" height="60" fill="white"/>
</clipPath>
</defs>
</svg>
