<svg width="60" height="60" viewBox="0 0 60 60" fill="none" xmlns="http://www.w3.org/2000/svg">
<g clip-path="url(#clip0_100_529)">
<path d="M33.5514 21.9457L30.0236 31.852H35.4382L36.9355 36.1591H28.711L27.2958 40.0561H21.8402L30.5569 17.0232H36.5869L45.2832 40.0766H39.8275L33.5514 21.9456V21.9457ZM56.1327 49.1829C57.3089 47.6969 55.3371 46.1413 54.242 47.5592C37.3313 68.8704 1.36234 53.7634 7.22324 23.5989C11.8527 3.79277 35.2844 -3.94806 50.473 8.56815C49.9984 9.9014 50.4405 11.5189 51.802 12.3198C53.8211 13.5074 56.3586 12.0148 56.3586 9.6396C56.3586 7.42171 54.1463 5.97421 52.2093 6.7589C35.6447 -7.09255 9.92535 1.33698 4.85769 23.0175C-2.03832 51.9977 34.2578 74.1023 56.1327 49.183V49.1829Z" fill="#0D0D0D"/>
</g>
<defs>
<clipPath id="clip0_100_529">
<rect width="60" height="60" fill="white"/>
</clipPath>
</defs>
</svg>
