<svg width="16" height="16" viewBox="0 0 16 16" fill="none" xmlns="http://www.w3.org/2000/svg">
<path d="M2.6665 7.81713C2.6665 7.564 2.85461 7.3548 3.09866 7.32169L3.1665 7.31713L11.9558 7.31753L8.78051 4.15517C8.58483 3.96033 8.58415 3.64375 8.77899 3.44807C8.95612 3.27018 9.23386 3.25344 9.42991 3.39825L9.4861 3.44655L13.5194 7.46255C13.5452 7.48823 13.5676 7.51603 13.5866 7.54538C13.592 7.55421 13.5975 7.56325 13.6027 7.57247C13.6074 7.58038 13.6117 7.58858 13.6158 7.59688C13.6214 7.60896 13.627 7.62143 13.632 7.63416C13.636 7.64397 13.6394 7.65351 13.6425 7.66313C13.6462 7.67506 13.6498 7.68777 13.6529 7.70068C13.6552 7.70969 13.657 7.71836 13.6586 7.72707C13.6608 7.74002 13.6627 7.75343 13.664 7.76699C13.6652 7.77734 13.6659 7.78759 13.6663 7.79785C13.6664 7.80407 13.6665 7.81058 13.6665 7.81713L13.6663 7.8365C13.6659 7.84631 13.6652 7.85611 13.6642 7.86589L13.6665 7.81713C13.6665 7.84868 13.6636 7.87955 13.658 7.90948C13.6567 7.91663 13.6552 7.92397 13.6534 7.93128C13.6499 7.94633 13.6458 7.96082 13.6411 7.97503C13.6387 7.98209 13.636 7.98963 13.6331 7.99712C13.6273 8.01217 13.621 8.02651 13.614 8.04048C13.6107 8.04705 13.6071 8.05393 13.6033 8.06073C13.597 8.07184 13.5906 8.08239 13.5838 8.09268C13.579 8.09996 13.5737 8.10754 13.5681 8.11499L13.5638 8.12076C13.5503 8.13836 13.5357 8.15503 13.5201 8.17068L13.5195 8.17114L9.48612 12.1878C9.29046 12.3827 8.97388 12.382 8.77902 12.1863C8.60188 12.0085 8.58631 11.7307 8.73196 11.5352L8.78048 11.4792L11.9545 8.31753L3.1665 8.31713C2.89036 8.31713 2.6665 8.09327 2.6665 7.81713Z" fill="#D9376E"/>
</svg>
