<svg width="60" height="60" viewBox="0 0 60 60" fill="none" xmlns="http://www.w3.org/2000/svg">
<path d="M23.3064 4.29504C21.5255 5.60449 19.4827 6.88781 17.2043 8.14488L17.2305 8.5377C17.3875 8.5377 17.5709 8.43293 17.8329 8.30203C18.0948 8.27578 18.2519 8.38055 18.2519 8.64246L18.6709 8.4068L18.8804 8.38055L18.9066 8.56395C18.9328 8.74723 17.4924 9.8734 14.6377 11.89L14.8734 12.2566L14.6639 12.2828L14.2187 12.1257C14.2187 12.2566 14.0354 12.3352 13.6163 12.3613L13.6425 12.5709L14.1139 13.0948C13.9569 13.0948 13.7472 13.0685 13.4854 12.9638C12.5688 13.0423 11.6521 13.7232 10.7616 14.9803L10.9974 15.347C11.783 14.6399 12.2282 14.2732 12.3591 14.2732L12.4116 14.8494C12.2806 14.8494 12.0711 14.9542 11.8093 15.0851L12.3069 15.8184C13.2496 14.797 14.2711 13.9328 15.4234 13.2257C15.9996 13.3827 16.2876 13.54 16.2876 13.7495L16.7067 13.7232C19.7709 11.4448 22.8089 9.82102 25.8206 8.79961L25.8468 9.19242C25.2969 10.0305 24.9039 10.4496 24.6944 10.4757C24.7207 10.7638 24.8254 10.9996 24.9826 11.2352C25.035 11.7591 23.6731 15.1898 20.897 21.5801C14.5591 36.4031 9.26891 47.3504 5 54.474C5 54.6049 5.10477 54.8145 5.23566 55.0502C6.28332 54.7883 6.96418 54.5525 7.25234 54.2907L7.48789 54.2645L7.51414 54.6573L7.90707 54.6312L8.32602 54.3955C8.32602 54.5264 8.48316 54.5788 8.74508 54.5525L8.77133 54.9455C8.79746 55.3383 8.58793 55.9406 8.09035 56.7525C7.64504 57.2501 7.19996 58.2715 6.70227 59.8167L6.72852 60L7.12133 59.9739C8.82371 58.062 10.133 56.1764 11.0237 54.343C16.0257 52.8765 19.8233 51.4361 22.4683 50.0218C25.1135 49.7862 27.1563 49.1052 28.5181 47.9529L28.492 47.7434L27.4967 48.0314L27.2611 48.0577L27.2348 47.8481C29.1728 47.5601 30.5348 47.1148 31.268 46.5387C35.0655 43.6055 37.9201 41.5364 39.8581 40.3055C45.8555 35.9058 48.684 31.663 48.3436 27.6299C48.3173 27.2108 46.9817 25.5609 44.3889 22.6801C44.3366 22.13 45.2532 21.3444 47.0865 20.2969L52.2982 15.7137C53.4505 14.2208 54.1576 11.8114 54.3932 8.48543L54.3147 7.69969C54.1052 5.36883 52.4292 3.48328 49.2339 2.04281C47.3484 0.759375 43.9699 0.0785156 39.0986 0C35.0916 0.366563 29.8014 1.7809 23.3064 4.29504V4.29504ZM51.3815 4.63547L51.2244 5.0284L45.4103 2.59277C49.2863 2.7498 51.2768 3.43078 51.3815 4.63547V4.63547ZM27.8633 20.7682C28.2561 18.6206 28.7013 17.3897 29.199 17.1016L33.5464 7.33301C33.494 6.73066 34.4107 6.25922 36.3225 5.94492L36.9511 5.89254L37.0034 6.44262C38.889 6.15445 40.0414 5.9973 40.4866 5.94492C43.9436 5.65687 45.7245 6.33785 45.8816 8.04023L46.2745 8.01398L46.196 7.01871L46.6149 6.99258C47.6363 7.54254 48.1863 8.22352 48.2387 9.03527C48.2911 9.58535 48.003 10.2662 47.3482 11.0781C47.0864 11.1043 46.9292 10.9211 46.903 10.5281L46.484 10.5543L46.3793 11.7328C44.6245 14.3518 43.3674 15.6874 42.5818 15.7661C41.8746 16.7351 41.4294 17.2327 41.2461 17.2588C40.6961 17.9135 39.2033 19.0397 36.7414 20.6111C35.9296 20.6896 32.9178 21.842 27.7061 24.1205C27.4442 23.9895 27.1823 23.9633 26.8681 23.9895L26.8419 23.6229C26.7895 22.8634 27.1038 21.9205 27.8633 20.7682V20.7682ZM51.9315 8.72109L51.9577 9.08766C51.7482 9.11391 51.3554 8.48531 50.7792 7.22824L50.7529 6.86156C51.1197 6.80918 51.5124 7.43777 51.9315 8.72109ZM13.6948 13.3828L13.7211 13.5661C13.5902 13.5661 13.3807 13.6709 13.1187 13.8018L12.9092 13.828L12.883 13.4613L13.6948 13.3828ZM26.3444 13.0685L26.3968 13.6447C26.2134 13.6709 25.9515 13.9328 25.6373 14.4827L25.6111 14.0899C25.9778 13.6446 26.161 13.3042 26.161 13.0685H26.3444V13.0685ZM24.4062 17.1539L24.4848 17.9396L24.2754 17.9658L24.1968 17.1802L24.4062 17.1539V17.1539ZM23.9087 18.5681C23.8563 19.2229 23.6991 19.5634 23.3587 19.5895L23.1492 19.6158C23.3848 19.1705 23.5159 18.8563 23.4896 18.6205L23.9087 18.5681V18.5681ZM23.0444 20.6109L23.0705 20.7943L22.704 21.4228L22.3111 21.4491L22.2849 21.2657C22.6777 21.2395 22.8611 21.03 22.8349 20.6372L23.0444 20.6109V20.6109ZM22.154 22.4442L22.0493 23.4132L21.8397 23.4394L21.7612 22.4704L22.154 22.4442ZM43.3936 23.1513L44.2578 23.6752C44.2841 23.937 44.1532 24.0941 43.8912 24.1204C43.5246 23.8847 43.2365 23.7799 43.027 23.7799L42.9746 23.2037L43.3936 23.1513ZM26.7634 25.3774L26.7895 25.7441L25.9776 25.8226L25.9515 25.4559L26.7634 25.3774ZM40.1723 26.7393C40.7485 27.0012 41.0366 27.2631 41.0627 27.4726L41.0889 27.6559C40.539 27.7083 40.0413 27.4202 39.57 26.7916L40.1723 26.7393ZM22.8875 30.982C25.2446 30.7726 28.9634 29.6726 34.018 27.6823L35.2489 27.5775C37.8155 27.368 39.7273 27.8393 40.9844 29.0441L41.0629 29.8297C40.1202 32.5534 39.0726 34.1248 37.9464 34.6225L32.7085 38.7865C28.8063 41.3531 26.7112 42.6364 26.3968 42.6626C20.19 46.0934 16.314 47.8481 14.8211 47.979L14.5855 48.0053C14.795 47.2719 17.5448 41.615 22.8875 30.982V30.982ZM28.5444 28.7559L28.5706 28.9393L27.7325 29.0179L27.7064 28.8346L28.5444 28.7561V28.7559ZM47.3484 27.9179L47.4794 29.463C47.2961 29.8821 47.1127 30.0916 46.9032 30.0916L46.6675 27.368C47.1128 27.5512 47.3223 27.7346 47.3484 27.9179V27.9179ZM15.4757 41.4316C15.2138 42.7673 14.9258 43.4483 14.6377 43.4745L14.6115 43.2912C14.5591 42.6103 14.8473 42.0079 15.4757 41.4316ZM20.7137 48.8171C22.2327 48.529 26.3968 46.3291 33.2322 42.2698L33.2584 42.6364C33.2846 42.7935 32.6823 43.2912 31.5037 44.1553C28.0205 45.8577 25.9777 47.0362 25.3754 47.6386C21.6041 48.948 19.7446 49.7599 19.7709 50.0742C16.4186 51.4098 14.2187 52.3788 13.1711 52.9812C12.9354 53.0074 12.5688 52.9027 12.0973 52.6931C12.045 52.0123 12.333 51.4622 13.014 51.017C13.5902 50.9646 14.1663 51.0432 14.6901 51.2789C15.3186 50.9646 16.3924 50.598 17.9376 50.2313L17.9114 49.8384L16.6805 49.9432C16.8376 49.7337 18.0161 49.1838 20.2685 48.2671L20.897 48.2147L20.9232 48.3981C19.8755 48.4766 19.2732 48.8171 19.1423 49.3671C19.1684 49.6028 19.2993 49.7337 19.5614 49.7075C20.3207 49.1837 20.7137 48.8957 20.7137 48.8171V48.8171ZM14.2711 44.0769L14.2973 44.2602C14.3234 44.522 14.1925 44.6791 13.9305 44.7054L13.9044 44.522C13.8782 44.2863 14.0091 44.1292 14.2712 44.0768L14.2711 44.0769ZM24.0659 46.7481C23.5684 46.8005 22.6517 47.1934 21.2636 47.979L21.0541 48.0053L21.028 47.6123C22.0231 47.5338 22.8874 47.141 23.5945 46.4339C23.8825 46.3815 24.0398 46.5124 24.0659 46.7481V46.7481ZM13.9044 49.5766L14.533 49.5243L14.5591 49.7337C14.4021 49.7337 14.2187 49.8384 13.9568 49.9695L13.5639 49.9956C13.5378 49.8123 13.6425 49.6552 13.9044 49.5766ZM9.74023 51.9075L10.1855 52.0908C10.0284 53.2693 9.68797 53.8717 9.08551 53.9241C8.61418 53.7145 8.19512 53.636 7.8023 53.6621L7.74992 53.0859C7.72367 52.8504 7.85469 52.7194 8.14273 52.6407C8.40465 52.6146 8.5618 52.7979 8.58805 53.1907C9.29504 52.3264 9.68797 51.9075 9.74023 51.9075V51.9075Z" fill="#0D0D0D"/>
</svg>
