<svg width="24" height="24" viewBox="0 0 24 24" fill="none" xmlns="http://www.w3.org/2000/svg">
<path fill-rule="evenodd" clip-rule="evenodd" d="M16.334 2C19.723 2 22 4.378 22 7.916V16.084C22 19.622 19.723 22 16.333 22H7.665C4.276 22 2 19.622 2 16.084V7.916C2 4.378 4.276 2 7.665 2H16.334ZM16.334 3.5H7.665C5.135 3.5 3.5 5.233 3.5 7.916V16.084C3.5 18.767 5.135 20.5 7.665 20.5H16.333C18.864 20.5 20.5 18.767 20.5 16.084V7.916C20.5 5.233 18.864 3.5 16.334 3.5ZM16.0895 9.097C16.3825 9.39 16.3825 9.864 16.0895 10.157L11.3435 14.903C11.1975 15.05 11.0055 15.123 10.8135 15.123C10.6225 15.123 10.4295 15.05 10.2835 14.903L7.9095 12.53C7.6165 12.237 7.6165 11.763 7.9095 11.47C8.2025 11.177 8.6765 11.177 8.9695 11.47L10.8135 13.312L15.0295 9.097C15.3225 8.804 15.7965 8.804 16.0895 9.097Z" fill="#37D937"/>
</svg>
