<svg width="16" height="16" viewBox="0 0 16 16" fill="none" xmlns="http://www.w3.org/2000/svg">
<path fill-rule="evenodd" clip-rule="evenodd" d="M10.8895 1.33334C13.1488 1.33334 14.6668 2.91868 14.6668 5.27734V10.7227C14.6668 13.0813 13.1488 14.6667 10.8888 14.6667H5.11016C2.85083 14.6667 1.3335 13.0813 1.3335 10.7227V5.27734C1.3335 2.91868 2.85083 1.33334 5.11016 1.33334H10.8895ZM10.8895 2.33334H5.11016C3.4235 2.33334 2.3335 3.48868 2.3335 5.27734V10.7227C2.3335 12.5113 3.4235 13.6667 5.11016 13.6667H10.8888C12.5762 13.6667 13.6668 12.5113 13.6668 10.7227V5.27734C13.6668 3.48868 12.5762 2.33334 10.8895 2.33334ZM6.75383 6.04174L7.99883 7.28668L9.24316 6.04314C9.4385 5.84781 9.7545 5.84781 9.94983 6.04314C10.1452 6.23848 10.1452 6.55448 9.94983 6.74981L8.7055 7.99334L9.95116 9.23974C10.1465 9.43508 10.1465 9.75108 9.95116 9.94641C9.85383 10.0444 9.72516 10.0931 9.59783 10.0931C9.46983 10.0931 9.34183 10.0444 9.2445 9.94641L7.99883 8.70001L6.75516 9.94448C6.65783 10.0425 6.52983 10.0911 6.40183 10.0911C6.27383 10.0911 6.14583 10.0425 6.0485 9.94448C5.85316 9.74914 5.85316 9.43314 6.0485 9.23781L7.29216 7.99334L6.04716 6.74841C5.85183 6.55308 5.85183 6.23708 6.04716 6.04174C6.24316 5.84641 6.55916 5.84641 6.75383 6.04174Z" fill="white"/>
</svg>
