<svg width="20" height="20" viewBox="0 0 20 20" fill="none" xmlns="http://www.w3.org/2000/svg">
<path fill-rule="evenodd" clip-rule="evenodd" d="M9.47667 0.158369C9.79333 -0.0524642 10.2058 -0.0524642 10.5233 0.158369L19.5767 6.1667C19.8408 6.3417 20 6.63754 20 6.95504V13.045C20 13.3617 19.8417 13.6584 19.5767 13.8342L10.5233 19.8425C10.2067 20.0525 9.79417 20.0525 9.47667 19.8425L0.423333 13.8334C0.293237 13.7471 0.186506 13.6299 0.112645 13.4924C0.038784 13.3548 8.68617e-05 13.2012 0 13.045L0 6.95504C0 6.63837 0.158333 6.3417 0.423333 6.16587L9.47667 0.158369ZM1.89333 8.7192V11.2675L3.8 9.9842L1.89333 8.7192V8.7192ZM5.5075 11.1175L2.65 13.04L9.05333 17.29V13.4709L5.50833 11.1175H5.5075ZM10.9467 13.4709V17.2892L17.35 13.0392L14.4917 11.1175L10.9467 13.4709V13.4709ZM16.1992 9.98504L18.1075 11.2684V8.71837L16.1992 9.98504V9.98504ZM17.3417 6.95504L14.5 8.84087L10.9467 6.45087V2.71087L17.3417 6.95504ZM9.05333 2.71087V6.45004L5.50083 8.84004L2.65833 6.95504L9.05333 2.71087V2.71087ZM10 8.09587L7.20833 9.9742L10 11.8267L12.7917 9.9742L10 8.09587Z" fill="#2A2A2A"/>
</svg>
