<svg width="18" height="18" viewBox="0 0 18 18" fill="none" xmlns="http://www.w3.org/2000/svg">
<path fill-rule="evenodd" clip-rule="evenodd" d="M5.52525 5.79944C5.83575 5.79944 6.08775 6.05144 6.08775 6.36194C6.08775 6.67244 5.83575 6.92444 5.52525 6.92444H4.8195C3.609 6.92444 2.625 7.90769 2.625 9.11744V12.7812C2.625 13.9954 3.612 14.9824 4.82625 14.9824H13.1812C14.3902 14.9824 15.375 13.9977 15.375 12.7887V9.12569C15.375 7.91144 14.3872 6.92444 13.1745 6.92444H12.4755C12.165 6.92444 11.913 6.67244 11.913 6.36194C11.913 6.05144 12.165 5.79944 12.4755 5.79944H13.1745C15.0082 5.79944 16.5 7.29194 16.5 9.12569V12.7887C16.5 14.6187 15.0105 16.1074 13.1812 16.1074H4.82625C2.9925 16.1074 1.5 14.6157 1.5 12.7812V9.11744C1.5 7.28744 2.98875 5.79944 4.8195 5.79944H5.52525ZM9.0006 2.25006C9.3111 2.25006 9.5631 2.50206 9.5631 2.81256L9.5625 10.4821L10.7893 9.25056C11.0083 9.03006 11.3638 9.03006 11.5843 9.24906C11.8041 9.46806 11.8048 9.82431 11.5858 10.0448L9.4039 12.2353C9.3826 12.2572 9.35952 12.2774 9.33491 12.2956L9.39885 12.2401C9.3747 12.2646 9.34849 12.2866 9.32062 12.3059C9.30361 12.3176 9.28633 12.3283 9.26846 12.338C9.25985 12.3427 9.25081 12.3473 9.24165 12.3516C9.2253 12.3594 9.2085 12.3664 9.19132 12.3726C9.1827 12.3757 9.1741 12.3785 9.16543 12.3812C9.14431 12.3877 9.12259 12.393 9.10041 12.397C9.09543 12.3978 9.09087 12.3986 9.08631 12.3993C9.06842 12.4021 9.04976 12.404 9.03085 12.405C9.02064 12.4055 9.01063 12.4058 9.0006 12.4058L8.97075 12.4036L8.9243 12.4007C8.92099 12.4002 8.91769 12.3997 8.9144 12.3992L9.0006 12.4058C8.96708 12.4058 8.93383 12.4028 8.90123 12.397C8.87867 12.393 8.857 12.3877 8.83585 12.3813C8.8274 12.3786 8.81911 12.3759 8.81088 12.3729C8.79364 12.3668 8.77662 12.3597 8.76005 12.3519C8.74998 12.3471 8.73997 12.342 8.73011 12.3366C8.71626 12.3289 8.7029 12.3208 8.68992 12.3122C8.68103 12.3063 8.67214 12.3001 8.66343 12.2935C8.642 12.2774 8.62179 12.2599 8.60291 12.241L8.60235 12.2401L6.41535 10.0448C6.19635 9.82431 6.1971 9.46806 6.41685 9.24906C6.63735 9.03006 6.99285 9.03006 7.21185 9.25056L8.4375 10.4821L8.4381 2.81256C8.4381 2.50206 8.6901 2.25006 9.0006 2.25006Z" fill="#FFFFFE"/>
</svg>
