<svg width="20" height="20" viewBox="0 0 20 20" fill="none" xmlns="http://www.w3.org/2000/svg">
<path fill-rule="evenodd" clip-rule="evenodd" d="M10 0C4.47917 0 0 4.47917 0 10C0 15.5208 4.47917 20 10 20C15.51 20 20 15.5208 20 10C20 4.47917 15.51 0 10 0ZM16.605 4.60917C17.8362 6.10861 18.5175 7.98408 18.5358 9.92417C18.2542 9.87 15.4342 9.295 12.5925 9.65333C12.5267 9.51167 12.4725 9.36 12.4075 9.20833C12.2308 8.79117 12.0429 8.3788 11.8442 7.97167C14.9892 6.69167 16.4208 4.84833 16.605 4.60917ZM10 1.47583C12.1692 1.47583 14.1542 2.28833 15.6617 3.6225C15.51 3.83917 14.2192 5.56417 11.1825 6.7025C9.7825 4.1325 8.2325 2.0275 7.99333 1.7025C8.6511 1.54891 9.32454 1.47256 10 1.475V1.47583ZM6.36667 2.2775C6.59417 2.58167 8.1125 4.69667 9.53333 7.2125C5.54167 8.27583 2.01667 8.25417 1.6375 8.25417C2.19083 5.6075 3.98083 3.40583 6.36667 2.2775ZM1.45333 10.0108V9.75083C1.8225 9.76167 5.965 9.81583 10.2283 8.53583C10.4775 9.01333 10.705 9.50083 10.9217 9.98917C10.8133 10.0217 10.6942 10.0542 10.5858 10.0867C6.1825 11.5075 3.83917 15.39 3.64417 15.7158C2.23368 14.1504 1.45317 12.118 1.45333 10.0108ZM10 18.5467C8.02583 18.5467 6.20417 17.8742 4.76167 16.7467C4.91333 16.4317 6.64833 13.0908 11.4642 11.41C11.4858 11.3992 11.4975 11.3992 11.5183 11.3883C12.7225 14.5008 13.21 17.115 13.3408 17.8633C12.31 18.3083 11.1825 18.5467 10 18.5467ZM14.7617 17.0825C14.675 16.5617 14.2192 14.0675 13.1017 10.9975C15.7808 10.575 18.1233 11.2692 18.4167 11.3667C18.0475 13.7417 16.6808 15.7917 14.7617 17.0825Z" fill="#2A2A2A"/>
</svg>
