<svg width="16" height="24" viewBox="0 0 16 24" fill="none" xmlns="http://www.w3.org/2000/svg">
<path d="M3.9046 0H7.79354V7.77797H3.90465C-1.22394 7.57748 -1.27574 0.210562 3.9046 0ZM3.9046 15.8886H7.79354V8.11064H3.90465C-1.27569 8.3212 -1.2239 15.6881 3.90465 15.8886H3.9046ZM12.0152 0H8.12621V7.77797H12.0152C17.2128 7.49981 17.148 0.158766 12.0152 0ZM7.79354 20.1103V16.2213H3.90465C0.731118 16.2213 -1.27569 19.942 0.931415 22.6145C3.03573 25.2633 7.79358 23.9427 7.79358 20.1103H7.79354ZM15.9121 11.9996C15.9121 9.01087 12.6544 7.13283 10.0624 8.6272C7.47033 10.1216 7.47029 13.8777 10.0624 15.3721C12.6545 16.8665 15.9121 14.9884 15.9121 11.9996Z" fill="#2A2A2A"/>
</svg>
