<svg width="60" height="60" viewBox="0 0 60 60" fill="none" xmlns="http://www.w3.org/2000/svg">
<path d="M19.7615 0H29.4838V19.4449H19.7616C6.94014 18.9437 6.81065 0.526406 19.7615 0ZM19.7615 39.7215H29.4838V20.2766H19.7616C6.81077 20.803 6.94026 39.2203 19.7616 39.7215H19.7615ZM40.0381 0H30.3155V19.4449H40.0381C53.0321 18.7495 52.8701 0.396914 40.0381 0ZM29.4838 50.2758V40.5532H19.7616C11.8278 40.5532 6.81076 49.8551 12.3285 56.5362C17.5893 63.1583 29.484 59.8568 29.484 50.2758H29.4838ZM49.7804 29.9991C49.7804 22.5272 41.6361 17.8321 35.156 21.568C28.6758 25.3039 28.6757 34.6943 35.156 38.4302C41.6362 42.1662 49.7804 37.4709 49.7804 29.9991Z" fill="#0D0D0D"/>
</svg>
