<svg width="60" height="60" viewBox="0 0 60 60" fill="none" xmlns="http://www.w3.org/2000/svg">
<g clip-path="url(#clip0_95_452)">
<path fill-rule="evenodd" clip-rule="evenodd" d="M28.4599 10.4676C29.4124 10.7556 30.4265 10.7711 31.3874 10.5126L47.2024 38.4676C46.4702 39.173 45.9557 40.0736 45.7199 41.0626H14.2749C14.0218 40.0242 13.4647 39.085 12.6749 38.3651L28.4574 10.4676H28.4599ZM26.1574 9.05508C26.2024 9.10508 26.2524 9.15258 26.2999 9.20008L10.4824 37.1626C10.4078 37.1426 10.3328 37.1243 10.2574 37.1076V22.8901C10.9765 22.7292 11.6543 22.4202 12.2474 21.9829C12.8405 21.5456 13.336 20.9895 13.7024 20.3501C14.0672 19.7143 14.2976 19.0103 14.3793 18.2819C14.461 17.5534 14.3923 16.8159 14.1774 16.1151L26.1574 9.05758V9.05508ZM35.0824 6.96758C35.3357 6.17207 35.3989 5.32821 35.2667 4.50385C35.1346 3.67949 34.8108 2.89766 34.3214 2.22125C33.832 1.54483 33.1907 0.992707 32.4491 0.609292C31.7074 0.225877 30.8862 0.021871 30.0513 0.0136843C29.2165 0.00549752 28.3914 0.193358 27.6423 0.562156C26.8933 0.930953 26.2413 1.47039 25.7388 2.13708C25.2362 2.80377 24.8972 3.5791 24.7489 4.40071C24.6005 5.22231 24.6471 6.06726 24.8849 6.86758L12.8974 13.9326C12.3221 13.3426 11.6178 12.8941 10.8399 12.6224C10.062 12.3506 9.23162 12.263 8.41412 12.3665C7.59662 12.47 6.81427 12.7616 6.12857 13.2186C5.44287 13.6756 4.87252 14.2854 4.46236 15.0001C4.05272 15.7157 3.81353 16.516 3.76336 17.339C3.71319 18.162 3.85339 18.9855 4.17308 19.7456C4.49276 20.5056 4.98333 21.1817 5.60668 21.7215C6.23004 22.2612 6.9694 22.6499 7.76736 22.8576V37.1451C6.97114 37.3548 6.23383 37.7448 5.61248 38.2851C4.99113 38.8253 4.5024 39.5013 4.1841 40.2607C3.86581 41.02 3.72648 41.8424 3.7769 42.6643C3.82732 43.4861 4.06613 44.2853 4.47486 45.0001C4.88445 45.713 5.45359 46.3215 6.13766 46.7777C6.82173 47.2339 7.60215 47.5255 8.41777 47.6296C9.23339 47.7337 10.062 47.6476 10.8388 47.3779C11.6155 47.1082 12.3193 46.6623 12.8949 46.0751L24.8824 53.1401C24.7391 53.6314 24.6667 54.1408 24.6674 54.6526C24.6699 57.6101 27.0499 60.0001 29.9999 60.0001C30.8534 59.9982 31.694 59.792 32.4515 59.3986C33.209 59.0053 33.8612 58.4363 34.3537 57.7391C34.8462 57.042 35.1646 56.2371 35.2822 55.3918C35.3998 54.5464 35.3133 53.6852 35.0299 52.8801L46.9074 45.8801C47.4672 46.5128 48.1697 47.0032 48.9568 47.3104C49.7438 47.6177 50.5927 47.7331 51.4332 47.6471C52.2737 47.5611 53.0816 47.2762 53.7901 46.8159C54.4986 46.3556 55.0872 45.7331 55.5074 45.0001C55.9285 44.2736 56.1726 43.4581 56.2198 42.6197C56.267 41.7813 56.116 40.9435 55.779 40.1744C55.442 39.4052 54.9286 38.7263 54.2802 38.1926C53.6319 37.6589 52.8669 37.2855 52.0474 37.1026V22.9026C52.8676 22.7194 53.6334 22.3462 54.2831 21.8129C54.9327 21.2797 55.4481 20.6013 55.7876 19.8325C56.1272 19.0637 56.2814 18.2258 56.2379 17.3865C56.1945 16.5471 55.9545 15.7297 55.5374 15.0001C55.1222 14.2792 54.5441 13.6655 53.8494 13.2079C53.1546 12.7504 52.3625 12.4618 51.5363 12.3651C50.71 12.2684 49.8726 12.3663 49.091 12.6511C48.3094 12.9359 47.6052 13.3996 47.0349 14.0051L35.0849 6.96508L35.0824 6.96758ZM33.5849 9.31008L33.7724 9.13008L45.7924 16.2126C45.5964 16.9008 45.5403 17.6212 45.6275 18.3315C45.7147 19.0417 45.9433 19.7272 46.2999 20.3476C46.6492 20.96 47.1173 21.4966 47.6767 21.9259C48.236 22.3551 48.8754 22.6685 49.5574 22.8476V37.1476C49.492 37.1655 49.427 37.1846 49.3624 37.2051L33.5849 9.31008V9.31008ZM45.8224 43.9551L33.8874 50.9901C33.39 50.4577 32.7885 50.0334 32.1201 49.7435C31.4517 49.4537 30.7309 49.3044 30.0024 49.3051C28.4874 49.3051 27.1224 49.9351 26.1524 50.9501L14.1899 43.9001C14.2199 43.8026 14.2474 43.7051 14.2699 43.6051H45.7249C45.7549 43.7226 45.7874 43.8401 45.8249 43.9551H45.8224Z" fill="#0D0D0D"/>
</g>
<defs>
<clipPath id="clip0_95_452">
<rect width="60" height="60" fill="white"/>
</clipPath>
</defs>
</svg>
