<svg width="60" height="60" viewBox="0 0 60 60" fill="none" xmlns="http://www.w3.org/2000/svg">
<path d="M30 18C41.7 18 51 15.3 51 12C51 8.7 41.7 6 30 6C18.3 6 9 8.7 9 12C9 15.3 18.3 18 30 18ZM30 45C18.3 45 9 42.3 9 39V48C9 51.3 18.3 54 30 54C41.7 54 51 51.3 51 48V39C51 42.3 41.7 45 30 45ZM30 33C18.3 33 9 30.3 9 27V36C9 39.3 18.3 42 30 42C41.7 42 51 39.3 51 36V27C51 30.3 41.7 33 30 33ZM30 21C18.3 21 9 18.3 9 15V24C9 27.3 18.3 30 30 30C41.7 30 51 27.3 51 24V15C51 18.3 41.7 21 30 21Z" fill="#0D0D0D"/>
</svg>
