<svg width="60" height="60" viewBox="0 0 60 60" fill="none" xmlns="http://www.w3.org/2000/svg">
<path d="M33.0469 5.625C35.6756 11.8294 23.6212 15.63 22.5 20.8012C21.4744 25.5469 29.6419 31.1137 29.6494 31.1137C28.4025 29.1506 27.495 27.495 26.25 24.4331C24.1406 19.2619 39.1031 14.5969 33.0469 5.625ZM41.0156 14.2387C41.0156 14.2387 30.4762 14.9044 29.9419 21.7969C29.6981 24.8662 32.7244 26.4769 32.8125 28.7119C32.8875 30.5344 30.9956 32.0494 30.9956 32.0494C30.9956 32.0494 34.3875 31.4363 35.4488 28.6519C36.6206 25.5619 33.165 23.4525 33.5156 20.9756C33.8531 18.6113 41.0156 14.2387 41.0156 14.2387V14.2387ZM43.5938 30.1163C42.4875 30.0656 41.2425 30.4763 40.1363 31.2881C42.3188 30.8063 44.1806 32.175 44.1806 33.75C44.1806 37.2806 39.1406 40.605 39.1406 40.605C39.1406 40.605 46.9331 39.7331 46.9331 33.9262C46.9331 31.53 45.4331 30.2044 43.5938 30.1163V30.1163ZM22.9106 30.1762C20.1919 30.27 14.7656 30.7181 14.7656 32.8125C14.7656 35.7281 27.4069 35.955 36.4462 34.1606C36.4462 34.1606 38.9062 32.4469 39.5512 31.8169C33.6262 33.0469 20.0981 33.2381 20.0981 32.1675C20.0981 31.1869 24.4331 30.1762 24.4331 30.1762C24.4331 30.1762 23.8181 30.1462 22.9106 30.1762V30.1762ZM22.0894 35.5669C20.6025 35.5669 18.3975 36.7238 18.3975 37.8506C18.3975 40.1213 29.5912 41.865 37.8525 38.5538L34.98 36.7969C29.3775 38.6287 19.0275 38.0194 22.0894 35.5669ZM23.4956 40.6631C21.4669 40.6631 20.1562 41.9456 20.1562 42.8906C20.1562 45.7969 32.2781 46.0837 37.0894 43.125L34.0425 41.1319C30.4538 42.6788 21.4238 42.9056 23.4956 40.6631ZM16.6988 43.3012C13.3894 43.2356 11.25 44.7356 11.25 45.9938C11.25 52.695 45.1762 52.3744 45.1762 45.525C45.1762 44.3906 43.8356 43.8488 43.3594 43.5919C46.1287 50.1394 15.645 49.6275 15.645 45.7594C15.645 44.8819 17.9006 44.0025 19.98 44.4131L18.2231 43.4156C17.7182 43.3421 17.2089 43.3033 16.6988 43.2994V43.3012ZM48.75 47.8125C43.5938 52.8 30.5437 54.5869 17.4019 51.5044C30.5419 56.9981 48.6844 53.9419 48.75 47.8125Z" fill="#0D0D0D"/>
</svg>
