<svg width="60" height="60" viewBox="0 0 60 60" fill="none" xmlns="http://www.w3.org/2000/svg">
<path fill-rule="evenodd" clip-rule="evenodd" d="M0 0H60V60H0V0ZM45.8675 50.3C43.085 50.3 41.5125 48.85 40.305 46.875L35.7225 49.5375C37.3775 52.8075 40.76 55.3025 45.9975 55.3025C51.3525 55.3025 55.34 52.5225 55.34 47.445C55.34 42.7375 52.635 40.645 47.845 38.5875L46.435 37.985C44.015 36.935 42.9675 36.2525 42.9675 34.56C42.9675 33.1925 44.0175 32.145 45.6675 32.145C47.285 32.145 48.3275 32.8275 49.295 34.56L53.685 31.7425C51.8275 28.475 49.2525 27.2275 45.6675 27.2275C40.6325 27.2275 37.41 30.4475 37.41 34.6775C37.41 39.265 40.11 41.4375 44.18 43.17L45.59 43.775C48.1625 44.9 49.695 45.585 49.695 47.5175C49.695 49.1325 48.2025 50.3 45.8675 50.3V50.3ZM24.0175 50.2625C22.08 50.2625 21.2725 48.9375 20.3875 47.3625L15.7975 50.1425C17.1275 52.9575 19.7425 55.2925 24.255 55.2925C29.2525 55.2925 32.675 52.635 32.675 46.7975V27.5475H27.0375V46.7225C27.0375 49.54 25.8675 50.2625 24.015 50.2625H24.0175Z" fill="#0D0D0D"/>
</svg>
