<svg width="20" height="20" viewBox="0 0 20 20" fill="none" xmlns="http://www.w3.org/2000/svg">
<path fill-rule="evenodd" clip-rule="evenodd" d="M7.85734 7.47419H10.9523V9.01585C11.3982 8.12919 12.5415 7.33252 14.259 7.33252C17.5515 7.33252 18.3332 9.09752 18.3332 12.3359V18.3334H14.9998V13.0734C14.9998 11.2292 14.554 10.1892 13.419 10.1892C11.8448 10.1892 11.1907 11.31 11.1907 13.0725V18.3334H7.85734V7.47419ZM2.1415 18.1917H5.47484V7.33252H2.1415V18.1917ZM5.95234 3.79169C5.95246 4.07108 5.89705 4.34772 5.78933 4.60551C5.6816 4.8633 5.52371 5.09712 5.32484 5.29335C4.92184 5.69387 4.37635 5.91807 3.80817 5.91669C3.241 5.91631 2.69676 5.69269 2.29317 5.29419C2.09501 5.09728 1.93766 4.86321 1.83012 4.60538C1.72259 4.34755 1.66699 4.07104 1.6665 3.79169C1.6665 3.22752 1.8915 2.68752 2.294 2.28919C2.69724 1.89015 3.2417 1.66644 3.809 1.66669C4.37734 1.66669 4.92234 1.89085 5.32484 2.28919C5.7265 2.68752 5.95234 3.22752 5.95234 3.79169Z" fill="#2A2A2A"/>
</svg>
