<svg width="30" height="30" viewBox="0 0 30 30" fill="none" xmlns="http://www.w3.org/2000/svg">
<path d="M30 15C30.0007 16.97 29.6132 18.9209 28.8596 20.7411C28.106 22.5613 27.0011 24.2151 25.6081 25.6081C24.2151 27.0011 22.5612 28.106 20.7411 28.8596C18.9209 29.6132 16.97 30.0007 15 30H2.99974C2.20421 29.9998 1.44132 29.6837 0.878794 29.1212C0.316272 28.5587 0.00017378 27.7958 5.94372e-07 27.0003V8.07225C-0.00028431 7.61973 0.101858 7.17302 0.298773 6.76559C0.495687 6.35816 0.782266 6.00059 1.13703 5.71967C1.49179 5.43875 1.90554 5.24177 2.34726 5.14349C2.78898 5.04522 3.24721 5.0482 3.68761 5.15221C3.79369 5.17542 3.89803 5.20598 3.99987 5.24366C4.44315 5.39955 4.84289 5.65888 5.16592 6.00013C5.24398 6.08011 5.31686 6.16499 5.38411 6.25425C5.78456 6.7756 6.00116 7.41485 6.00013 8.07225V23.9999H9.22393C9.48918 24.0004 9.74336 24.1063 9.93056 24.2942C10.1177 24.4821 10.2226 24.7367 10.2221 25.002C10.2216 25.2672 10.1157 25.5214 9.92778 25.7086C9.73986 25.8958 9.48526 26.0007 9.22001 26.0001H5C4.86863 26.0002 4.73854 25.9744 4.61716 25.9242C4.49578 25.8739 4.3855 25.8003 4.29261 25.7074C4.19972 25.6145 4.12605 25.5042 4.07582 25.3828C4.02559 25.2615 3.99978 25.1314 3.99987 25V8.06964C3.99987 7.80439 3.8945 7.55 3.70694 7.36244C3.51938 7.17488 3.26499 7.06951 2.99974 7.06951C2.73449 7.06951 2.4801 7.17488 2.29254 7.36244C2.10498 7.55 1.99961 7.80439 1.99961 8.06964V27.0003C1.99978 27.2655 2.10521 27.5197 2.29273 27.7073C2.48025 27.8948 2.73454 28.0002 2.99974 28.0004H15C18.4477 28.0004 21.7543 26.6308 24.1922 24.1929C26.6301 21.7549 27.9997 18.4484 27.9997 15.0007C27.9997 11.5529 26.6301 8.24637 24.1922 5.80845C21.7543 3.37053 18.4477 2.00091 15 2.00091H10C9.7348 2.00109 9.48051 2.10651 9.29299 2.29404C9.10546 2.48156 9.00004 2.73585 8.99987 3.00105C8.99918 3.14551 9.03064 3.28832 9.09197 3.41913C9.17181 3.59282 9.29979 3.73998 9.46073 3.84315C9.62168 3.94631 9.80883 4.00115 10 4.00118H15C17.9174 4.00118 20.7153 5.16012 22.7783 7.22304C24.8412 9.28596 26.0001 12.0839 26.0001 15.0013C26.0001 17.9187 24.8412 20.7166 22.7783 22.7796C20.7153 24.8425 17.9174 26.0014 15 26.0014H11.7991C11.5338 26.0014 11.2794 25.8961 11.0919 25.7085C10.9043 25.5209 10.7989 25.2666 10.7989 25.0013C10.7989 24.7361 10.9043 24.4817 11.0919 24.2941C11.2794 24.1065 11.5338 24.0012 11.7991 24.0012H15C17.3869 24.0012 19.6761 23.053 21.3639 21.3652C23.0517 19.6774 23.9999 17.3882 23.9999 15.0013C23.9999 12.6144 23.0517 10.3252 21.3639 8.63744C19.6761 6.94964 17.3869 6.00144 15 6.00144H10C9.64143 6.00258 9.2856 5.93906 8.94956 5.81395C8.53794 5.66124 8.16502 5.41968 7.85735 5.10648C7.54968 4.79327 7.31481 4.41611 7.16945 4.00183C6.97111 3.43969 6.94383 2.83136 7.09106 2.25372C7.11327 2.16815 7.1394 2.08388 7.16945 2.00157C7.37607 1.41601 7.75931 0.909001 8.26631 0.550491C8.7733 0.19198 9.37905 -0.000361714 10 5.10674e-07H15C18.9782 5.10674e-07 22.7935 1.58035 25.6066 4.3934C28.4196 7.20644 30 11.0218 30 15V15Z" fill="#0D0D0D"/>
</svg>
