<svg width="16" height="16" viewBox="0 0 16 16" fill="none" xmlns="http://www.w3.org/2000/svg">
<path fill-rule="evenodd" clip-rule="evenodd" d="M4.16683 8.66668C6.8795 8.66668 7.00016 9.58668 7.00016 11.5C7.00016 12.4587 7.00016 13.1407 6.5975 13.64C6.13416 14.2153 5.29083 14.3333 4.16683 14.3333C3.04283 14.3333 2.1995 14.2153 1.73616 13.64C1.3335 13.1407 1.3335 12.4593 1.3335 11.5167L1.8335 11.5H1.3335C1.3335 9.58668 1.45416 8.66668 4.16683 8.66668ZM11.5002 8.66668C14.2128 8.66668 14.3335 9.58668 14.3335 11.5C14.3335 12.4587 14.3335 13.1407 13.9308 13.64C13.4675 14.2153 12.6242 14.3333 11.5002 14.3333C10.3762 14.3333 9.53283 14.2153 9.0695 13.64C8.66683 13.1407 8.66683 12.4593 8.66683 11.5167L9.16683 11.5H8.66683C8.66683 9.58668 8.7875 8.66668 11.5002 8.66668ZM4.30427 9.66697L4.16683 9.66668C2.42751 9.66668 2.33832 9.79149 2.33374 11.2514L2.33402 11.8201C2.33718 12.4008 2.35931 12.8202 2.51416 13.0133C2.69083 13.232 3.2155 13.3333 4.16683 13.3333C5.11816 13.3333 5.64283 13.2313 5.8195 13.0127C6.00016 12.788 6.00016 12.2547 6.00016 11.516C6.00016 9.84921 6.00016 9.67482 4.30427 9.66697ZM11.6376 9.66697L11.5002 9.66668C9.76085 9.66668 9.67165 9.79149 9.66708 11.2514L9.66736 11.8201C9.67052 12.4008 9.69264 12.8202 9.8475 13.0133C10.0242 13.232 10.5488 13.3333 11.5002 13.3333C12.4515 13.3333 12.9762 13.2313 13.1528 13.0127C13.3335 12.788 13.3335 12.2547 13.3335 11.516C13.3335 9.84921 13.3335 9.67482 11.6376 9.66697ZM4.16683 1.33334C6.8795 1.33334 7.00016 2.25334 7.00016 4.16668C7.00016 5.12534 7.00016 5.80734 6.5975 6.30668C6.13416 6.88201 5.29083 7.00001 4.16683 7.00001C3.04283 7.00001 2.1995 6.88201 1.73616 6.30668C1.3335 5.80734 1.3335 5.12601 1.3335 4.18334L1.8335 4.16668H1.3335C1.3335 2.25334 1.45416 1.33334 4.16683 1.33334ZM11.5002 1.33334C14.2128 1.33334 14.3335 2.25334 14.3335 4.16668C14.3335 5.12534 14.3335 5.80734 13.9308 6.30668C13.4675 6.88201 12.6242 7.00001 11.5002 7.00001C10.3762 7.00001 9.53283 6.88201 9.0695 6.30668C8.66683 5.80734 8.66683 5.12601 8.66683 4.18334L9.16683 4.16668H8.66683C8.66683 2.25334 8.7875 1.33334 11.5002 1.33334ZM4.30427 2.33364L4.16683 2.33334C2.42751 2.33334 2.33832 2.45815 2.33374 3.91804L2.33402 4.4868C2.33718 5.06744 2.35931 5.48687 2.51416 5.68001C2.69083 5.89868 3.2155 6.00001 4.16683 6.00001C5.11816 6.00001 5.64283 5.89801 5.8195 5.67934C6.00016 5.45468 6.00016 4.92134 6.00016 4.18268C6.00016 2.51587 6.00016 2.34149 4.30427 2.33364ZM11.6376 2.33364L11.5002 2.33334C9.76085 2.33334 9.67165 2.45815 9.66708 3.91804L9.66736 4.4868C9.67052 5.06744 9.69264 5.48687 9.8475 5.68001C10.0242 5.89868 10.5488 6.00001 11.5002 6.00001C12.4515 6.00001 12.9762 5.89801 13.1528 5.67934C13.3335 5.45468 13.3335 4.92134 13.3335 4.18268C13.3335 2.51587 13.3335 2.34149 11.6376 2.33364Z" fill="white"/>
</svg>
