<svg width="60" height="60" viewBox="0 0 60 60" fill="none" xmlns="http://www.w3.org/2000/svg">
<path d="M42.9489 23.7993C39.7952 9.89246 32.3439 5.33246 31.5433 3.58496C30.6639 2.34558 29.717 0.00183105 29.717 0.00183105C29.7076 0.0505811 29.7076 0.080581 29.6983 0.129331V0.159331C29.6983 0.198706 29.6889 0.217456 29.6889 0.256831V0.296206H29.6795V0.421831H29.6701C29.6701 0.440581 29.6701 0.470581 29.6608 0.479956V0.538081C29.6608 0.556831 29.6608 0.577456 29.6514 0.586831V0.635581C29.6514 0.665581 29.6514 0.693706 29.642 0.714331V0.723706C29.6404 0.766756 29.6341 0.809502 29.6233 0.851206V0.869956C29.6139 0.879331 29.6139 0.888706 29.6139 0.899956V0.939331H29.6045V0.997456H29.5951V1.03683H29.5764V1.09496H29.567V1.14371H29.5576V1.18308H29.5483V1.22246H29.5389V1.26183H29.5295V1.30121H29.5201V1.33121H29.5108V1.37058H29.5014V1.40996H29.492C29.4826 1.40996 29.4826 1.41933 29.4826 1.41933V1.43808L29.4733 1.45683C29.4733 1.47558 29.4639 1.49621 29.4545 1.51496C29.4451 1.52433 29.4451 1.52433 29.4451 1.53371V1.55246H29.4358V1.57121H29.417V1.61996H29.3983V1.64996H29.3889V1.65933H29.3795V1.67808H29.3701V1.70808H29.3608V1.72683H29.342V1.75683H29.3326V1.77558H29.3233V1.79433H29.3139V1.82433H29.3045V1.84308H29.2951V1.85246H29.2858V1.87121H29.267V1.90121H29.2576V1.91058H29.2483V1.92933H29.2389V1.95933H29.2295V1.96871H29.2201V1.98746H29.2108V1.99683H29.2014V2.02683H29.1826V2.03621H29.1733V2.05496H29.1639V2.06433H29.1545V2.08308H29.1451V2.10183C29.1358 2.10183 29.1358 2.11121 29.1358 2.11121V2.12058H29.1264L29.0964 2.16933C29.0964 2.16933 29.0776 2.18808 29.0776 2.19933C29.0683 2.19933 29.0683 2.20871 29.0683 2.20871V2.21808H29.0589V2.22746H29.0495V2.24621H29.0308V2.25558H29.0214V2.26496H29.012V2.29308H29.0026V2.30246H28.9933V2.31183H28.9839V2.33058H28.9745V2.31183H28.9558V2.32121H28.9464V2.33996H28.937V2.35871H28.9276V2.36808H28.9183V2.37746H28.9089V2.38683H28.8995V2.40558H28.8808V2.41496H28.8714V2.43371H28.862V2.44308H28.8526V2.45246H28.8433V2.48246H28.8339V2.49183H28.8245V2.50121H28.8151V2.51058H28.8058V2.51996H28.787V2.53871H28.7776V2.54808H28.7683V2.55746H28.7589V2.57621H28.7495V2.58558H28.7308V2.59496H28.7214V2.60433H28.712V2.62308H28.7026V2.64183H28.6933V2.65121H28.6839V2.66058H28.6651V2.66996H28.6558V2.67933H28.6464V2.69808H28.637V2.70746H28.6276V2.72621H28.6183V2.73558H28.6089V2.74496H28.5995V2.75433H28.5901V2.76371H28.5714V2.77308C28.562 2.77308 28.562 2.78246 28.562 2.78246L28.5526 2.79183L28.5433 2.80121V2.81996H28.5339V2.82933H28.5245V2.83871H28.5151V2.84808H28.5058L28.487 2.86683V2.87621C28.4683 2.88558 28.4683 2.89496 28.4476 2.91558C28.4476 2.91558 28.4289 2.93433 28.4176 2.93433C28.3876 2.95308 28.3501 2.99246 28.3201 3.02246C28.3014 3.03183 28.2808 3.05246 28.262 3.06183C28.2226 3.10121 28.1833 3.12933 28.1439 3.15933C28.0858 3.21746 28.0258 3.25683 27.9583 3.31496H27.9489L27.4895 3.71621H27.4801C27.0601 4.08746 26.5614 4.56558 25.9951 5.13183L25.9464 5.18058C22.547 8.69621 17.1864 16.0293 16.6295 27.8756C16.5714 28.8525 16.5808 29.8087 16.6389 30.7368V30.7556C16.9126 35.4243 18.377 39.4087 20.2126 42.6506C20.9345 43.9406 21.7258 45.1125 22.5264 46.1662C25.2808 49.8 28.0933 51.9581 28.8058 52.485C29.9101 55.0331 29.8108 59.4281 29.8108 59.4281L31.4214 59.9643C31.4214 59.9643 31.0895 55.7156 31.5489 53.655C31.6951 53.0193 32.027 52.4737 32.4189 52.005C32.6927 51.8193 33.4745 51.2531 34.412 50.3943C34.4608 50.3456 34.4908 50.3062 34.5302 50.2575C38.3289 46.7118 45.4295 37.9818 42.9977 23.7637L42.9489 23.7993Z" fill="#0D0D0D"/>
</svg>
