<svg width="60" height="60" viewBox="0 0 60 60" fill="none" xmlns="http://www.w3.org/2000/svg">
<g clip-path="url(#clip0_95_445)">
<path fill-rule="evenodd" clip-rule="evenodd" d="M13.6547 10.1006C13.0908 10.0907 12.5279 10.1529 11.9797 10.2856V10.3806H12.0722C12.3972 11.0481 12.9722 11.4806 13.3747 12.0556L14.3047 14.0081L14.3997 13.9156C14.9747 13.5106 15.2397 12.8606 15.2372 11.8681C15.0047 11.6256 14.9697 11.3206 14.7697 11.0306C14.5047 10.6456 13.9897 10.4256 13.6547 10.1006ZM58.6972 57.8431C59.1347 58.1656 59.4297 58.6656 59.9997 58.8681V58.7731C59.6997 58.3931 59.6247 57.8681 59.3497 57.4706C58.9472 57.0706 58.5397 56.6656 58.1397 56.2606C56.9547 54.6906 55.4547 53.3106 53.8572 52.1656C52.5872 51.2531 49.7347 50.0181 49.2047 48.5381L49.1097 48.4431C50.0122 48.3431 51.0697 48.0156 51.9022 47.7931C53.3022 47.4181 54.5522 47.5131 55.9972 47.1431C56.6497 46.9531 57.2997 46.7681 57.9522 46.5831V46.2081C57.2222 45.4581 56.7022 44.4681 55.9047 43.7906C53.8197 42.0156 51.5472 40.2406 49.2047 38.7656C47.9047 37.9431 46.2997 37.4131 44.9222 36.7156C44.4597 36.4831 43.6472 36.3606 43.3422 35.9731C42.6172 35.0481 42.2247 33.8806 41.6672 32.8081C40.4997 30.5581 39.3497 28.1006 38.3172 25.7331C37.6097 24.1206 37.1497 22.5306 36.2672 21.0831C32.0422 14.1331 27.4922 9.94057 20.4472 5.81807C18.9472 4.94307 17.1422 4.59557 15.2372 4.14307L12.1647 3.95807C11.5397 3.69557 10.8897 2.93307 10.3047 2.56057C7.96973 1.08557 1.97973 -2.12193 0.254731 2.09557C-0.837769 4.75807 1.88473 7.35557 2.85973 8.70307C3.54223 9.65057 4.41723 10.7106 4.90723 11.7756C5.22723 12.4756 5.28223 13.1756 5.55723 13.9156C6.23473 15.7406 6.82223 17.7206 7.69723 19.4056C8.14223 20.2581 8.62973 21.1556 9.18723 21.9181C9.53223 22.3856 10.1172 22.5931 10.2097 23.3156C9.63473 24.1181 9.60473 25.3656 9.28223 26.3856C7.82723 30.9731 8.37473 36.6731 10.4922 40.0681C11.1397 41.1081 12.6672 43.3431 14.7697 42.4856C16.6097 41.7356 16.1997 39.4156 16.7247 37.3681C16.8422 36.9031 16.7722 36.5606 17.0047 36.2506V36.3431L18.6797 39.6931C19.9197 41.6906 22.1197 43.7781 23.9847 45.1856C24.9497 45.9156 25.7097 47.1781 26.9622 47.6056V47.5106H26.8697C26.6247 47.1356 26.2447 46.9781 25.9397 46.6731C25.1655 45.9216 24.4493 45.1126 23.7972 44.2531C22.1022 41.9531 20.6047 39.4331 19.2397 36.8106C18.5872 35.5556 18.0197 34.1756 17.4697 32.9006C17.2572 32.4081 17.2597 31.6656 16.8197 31.4106C16.2172 32.3456 15.3297 33.1006 14.8647 34.2031C14.1197 35.9656 14.0222 38.1156 13.7472 40.3456C13.5847 40.4031 13.6572 40.3631 13.5597 40.4381C12.2647 40.1256 11.8097 38.7906 11.3272 37.6456C10.1097 34.7531 9.88223 30.0906 10.9547 26.7581C11.2322 25.8956 12.4872 23.1806 11.9797 22.3831C11.7347 21.5881 10.9372 21.1306 10.4897 20.5231C9.90461 19.7075 9.40529 18.8337 8.99973 17.9156C8.00473 15.6606 7.53723 13.1256 6.48723 10.8431C5.98723 9.75307 5.13723 8.65057 4.43973 7.68057C3.66973 6.60557 2.80473 5.81557 2.20723 4.51557C1.99473 4.05307 1.70473 3.31557 2.01973 2.84057C2.11973 2.52057 2.26223 2.38557 2.57973 2.28307C3.11973 1.86557 4.62223 2.42057 5.18473 2.65307C6.67723 3.27307 7.92223 3.86307 9.18473 4.70307C9.79223 5.10307 10.4072 5.88307 11.1397 6.09807H11.9772C13.2897 6.39807 14.7572 6.19057 15.9797 6.56307C18.1422 7.22057 20.0797 8.24307 21.8422 9.35557C27.2072 12.7431 31.5922 17.5631 34.5922 23.3156C35.0747 24.2406 35.2847 25.1256 35.7097 26.1081C36.5672 28.0881 37.6472 30.1256 38.4997 32.0631C39.3497 33.9956 40.1822 35.9456 41.3847 37.5531C42.0172 38.3981 44.4622 38.8531 45.5747 39.3231C46.3522 39.6506 47.6272 39.9956 48.3647 40.4381C49.7747 41.2881 51.1397 42.3006 52.4597 43.2306C53.1197 43.6981 55.1522 44.7181 55.2522 45.5556C51.9772 45.4706 49.4772 45.7731 47.3422 46.6756C46.7347 46.9306 45.7672 46.9381 45.6672 47.6981C45.9997 48.0481 46.0522 48.5731 46.3172 49.0006C46.8272 49.8256 47.6897 50.9331 48.4572 51.5131C49.2997 52.1481 50.1647 52.8256 51.0647 53.3756C52.6647 54.3506 54.4547 54.9106 55.9947 55.8881C56.9072 56.4656 57.8097 57.1906 58.6947 57.8431H58.6972Z" fill="#0D0D0D"/>
</g>
<defs>
<clipPath id="clip0_95_445">
<rect width="60" height="60" fill="white"/>
</clipPath>
</defs>
</svg>
