<svg width="60" height="60" viewBox="0 0 60 60" fill="none" xmlns="http://www.w3.org/2000/svg">
<g clip-path="url(#clip0_95_467)">
<path d="M28.035 0.0151904C27.905 0.0276904 27.495 0.0701904 27.125 0.0976904C18.605 0.86769 10.625 5.46519 5.565 12.5327C2.77075 16.412 0.9543 20.9085 0.27 25.6402C0.03 27.2902 0 27.7752 0 30.0102C0 32.2452 0.03 32.7327 0.27 34.3802C1.9 45.6477 9.92 55.1127 20.7925 58.6202C22.74 59.2477 24.7925 59.6752 27.125 59.9352C28.035 60.0352 31.965 60.0352 32.875 59.9352C36.9025 59.4877 40.3175 58.4902 43.6825 56.7727C44.2 56.5102 44.3 56.4377 44.23 56.3802C44.18 56.3452 41.9825 53.3952 39.3425 49.8302L34.545 43.3477L28.535 34.4502C26.5353 31.4742 24.5169 28.5108 22.48 25.5602C22.4575 25.5527 22.435 29.5052 22.4225 34.3352C22.405 42.7852 22.3975 43.1252 22.2925 43.3252C22.1901 43.5586 22.0074 43.7475 21.7775 43.8577C21.59 43.9527 21.4275 43.9702 20.54 43.9702H19.525L19.255 43.8002C19.0879 43.6947 18.9523 43.5462 18.8625 43.3702L18.7375 43.1077L18.75 31.3477L18.7675 19.5827L18.95 19.3527C19.0729 19.2089 19.2201 19.0879 19.385 18.9952C19.625 18.8777 19.7175 18.8677 20.735 18.8677C21.93 18.8677 22.13 18.9127 22.44 19.2527C22.5275 19.3477 25.7825 24.2527 29.6775 30.1577L41.5125 48.0877L46.2625 55.2827L46.505 55.1252C48.791 53.6054 50.8635 51.7868 52.6675 49.7177C56.4479 45.3909 58.9001 40.0656 59.73 34.3802C59.97 32.7302 60 32.2452 60 30.0102C60 27.7752 59.97 27.2902 59.73 25.6402C58.1 14.3752 50.08 4.90769 39.2075 1.40019C37.1755 0.754114 35.0831 0.316034 32.9625 0.0926904C32.3975 0.0326904 28.5225 -0.0323096 28.0375 0.0176904L28.035 0.0151904ZM40.3175 18.1652C40.4569 18.2354 40.581 18.3325 40.6827 18.4509C40.7844 18.5694 40.8617 18.7068 40.91 18.8552C40.955 19.0052 40.9675 22.2677 40.955 29.6177L40.9375 40.1627L39.08 37.3127L37.215 34.4627V26.7977C37.215 21.8402 37.2375 19.0552 37.2725 18.9202C37.3141 18.764 37.387 18.6179 37.4867 18.4908C37.5864 18.3636 37.7108 18.2579 37.8525 18.1802C38.095 18.0552 38.1825 18.0452 39.1025 18.0452C39.97 18.0452 40.1225 18.0577 40.3175 18.1627V18.1652Z" fill="#0D0D0D"/>
</g>
<defs>
<clipPath id="clip0_95_467">
<rect width="60" height="60" fill="white"/>
</clipPath>
</defs>
</svg>
