<svg width="60" height="60" viewBox="0 0 60 60" fill="none" xmlns="http://www.w3.org/2000/svg">
<path d="M54.2777 10.9257C53.7933 10.3098 53.2678 9.72901 52.7927 9.10569C52.3029 8.46268 51.8115 7.84604 51.1949 7.31682C49.9864 6.27995 48.6057 5.36237 47.2449 4.53796C44.4958 2.87237 41.2646 1.68491 38.1266 1.01436C36.4601 0.658232 34.7612 0.532607 33.0633 0.427958C31.328 0.320966 29.5974 0.232841 27.8633 0.402646C24.5828 0.724091 21.1302 1.01765 18.016 2.1635C15.0606 3.25089 12.2898 4.97788 9.89411 7.01776C8.65907 8.0694 7.689 9.37218 6.66888 10.6242C5.61185 11.9215 4.62771 13.254 3.80118 14.7114C2.02145 17.8493 0.505985 21.3372 0.289188 24.9873C0.235633 25.8889 0.287078 26.7865 0.383524 27.6833C0.480906 28.588 0.567977 29.5779 0.861063 30.4431C0.902899 30.5665 0.990204 30.6868 0.986336 30.8232C0.982821 30.9478 0.853094 31.0165 0.868797 31.1485C0.885321 31.2872 1.01294 31.3103 1.05067 31.4291C1.10458 31.5987 1.05313 31.7648 1.0577 31.9392C1.06837 32.3324 1.21368 32.7136 1.30532 33.092C1.40891 33.5198 1.3563 33.7979 1.21907 34.2095C1.38524 34.1097 1.54579 33.9994 1.71899 33.9115C1.84966 34.4376 2.01817 34.9535 2.14345 35.4811C2.28044 36.0578 2.3722 36.3152 2.79981 36.7428C2.79981 36.0736 2.62087 35.5151 2.53017 34.8596C2.6129 34.8799 2.69575 34.8995 2.77884 34.9181C2.53216 35.1649 3.01298 35.8019 3.10696 36.0368C3.26727 35.8756 3.39958 35.7779 3.63524 35.8001C3.55134 35.5905 3.51149 35.3646 3.42278 35.1566C3.35423 34.9958 3.20751 34.828 3.17962 34.7134C3.15337 34.6054 3.21184 34.5207 3.15173 34.3903C3.10438 34.2875 2.98438 34.2354 2.93376 34.137C2.79477 33.8666 3.01438 33.5865 2.97161 33.2863C2.87622 32.6144 2.64876 31.9623 2.56919 31.2841C2.4997 30.6917 2.64583 29.9603 2.17977 29.497C1.89032 29.7323 1.9563 30.3165 1.53278 30.1522C1.20431 30.0248 1.29477 29.5224 1.61985 29.6075C1.62384 29.3068 1.49692 29.1974 1.64645 28.937C1.7845 28.6964 1.98677 28.5296 2.1022 28.2605C2.35016 27.6819 2.39481 27.0023 2.4377 26.3823C2.53579 24.9649 2.81833 23.6969 3.2838 22.3515C4.1688 19.7926 5.45704 17.3676 6.86095 15.0588C9.48525 10.7428 13.4172 7.00628 18.0736 4.94975C19.512 4.31436 21.0262 3.82921 22.5526 3.45421C24.0555 3.08495 25.606 3.11835 27.1367 2.9646C25.8572 4.77046 24.6206 6.62647 23.2758 8.38358C21.9836 10.0718 20.6647 11.7381 19.3821 13.434C18.0522 15.1924 16.8798 17.0584 15.644 18.8828C15.0371 19.7787 14.4248 20.6708 13.8001 21.5544C13.4975 21.9824 13.1793 22.3666 12.8448 22.7614C12.6827 22.9528 12.6832 23.1184 12.6033 23.3456C12.521 23.5799 12.3676 23.7874 12.2421 23.9993L12.0934 23.7204C11.7971 24.194 11.5342 24.686 11.2429 25.1618C11.0819 25.4246 10.5355 25.9371 11.0306 26.1153C10.9264 26.1963 10.8248 26.2806 10.726 26.368C10.8722 26.5292 11.0845 26.6112 11.2208 26.7831C11.2597 26.7341 11.2973 26.684 11.3334 26.633C11.3826 27.0088 11.5258 26.6167 11.615 26.4978C11.7231 26.3537 11.8292 26.2064 11.9543 26.0762C12.206 25.8139 12.5087 25.6059 12.7687 25.3509C13.3019 24.828 13.7775 24.2402 14.2504 23.6631C15.302 22.3799 16.2283 20.9979 17.3197 19.7468C17.2058 21.0421 17.1651 22.3425 17.0572 23.6385C17.0059 24.2539 17.0714 24.8601 17.0034 25.4794C16.9339 26.1112 16.8778 26.7447 16.8854 27.381C16.9008 28.6767 16.9712 29.9549 16.8854 31.2506C16.851 31.772 16.9509 32.2653 16.9516 32.7805C16.9522 33.1083 16.8623 33.5597 17.28 33.5597C17.28 34.3891 16.9905 35.1443 17.0544 35.9887C17.0836 36.3745 17.0155 36.7372 17.014 37.1197C17.0122 37.5606 17.3694 37.8844 17.3592 38.2998C17.1003 38.2998 16.9335 38.2194 16.8146 38.4573C16.7126 38.662 16.8266 39.0785 16.8396 39.3038C16.8628 39.7073 16.8551 40.1175 16.8416 40.5215C16.8336 40.7595 16.899 41.4306 16.7161 41.6336C16.5269 41.8438 16.1676 41.7679 15.8981 41.7757C15.4039 41.7897 14.9095 41.788 14.4152 41.787C13.4651 41.7853 12.5174 41.8248 11.5677 41.8358C9.64626 41.8582 7.72896 41.8113 5.80626 41.8994C5.00188 41.9363 4.09087 41.9809 3.33513 42.2886C3.00067 42.4248 2.98954 42.5629 2.85184 42.8696C2.82079 42.9389 2.66786 42.9326 2.6511 43.026C2.62216 43.1865 2.80204 43.3736 2.84317 43.5217C2.93423 43.4816 3.02247 43.4359 3.10778 43.3845C3.04313 43.4923 2.97852 43.6001 2.91395 43.7079C3.12923 43.627 3.3452 43.5476 3.55989 43.4653C3.55989 43.6056 4.3331 43.4735 4.52493 43.4909C4.8336 43.5191 5.13419 43.6104 5.43689 43.6715C6.27208 43.8401 7.13985 43.8724 7.98876 43.9172C9.5947 44.0017 11.1968 43.9906 12.8042 43.9864C14.4854 43.982 16.1636 44.0442 17.8452 44.0056C19.4547 43.9688 21.063 43.8916 22.6721 43.8386C25.9678 43.7302 29.2625 43.7554 32.5549 43.547C35.8663 43.3373 39.1672 43.1376 42.484 43.038C44.3122 42.9831 46.1398 42.9158 47.9647 42.7929C49.7608 42.6718 51.6603 42.4968 53.4564 42.6425L53.1496 42.8983C53.6736 42.9071 52.845 43.672 52.7887 43.7587C52.6921 43.9078 52.6774 44.1117 52.5798 44.2601C52.4758 44.418 52.3737 44.4157 52.2392 44.5388C52.2296 44.5476 52.157 44.7064 52.1389 44.7384C52.0476 44.9006 52.0533 45.0648 51.9558 45.2252C51.7371 45.5854 51.6434 45.6542 51.2058 45.7997C51.3071 45.8333 51.4084 45.867 51.5098 45.9006C51.3858 45.9623 51.4949 46.1042 51.4333 46.3009C51.3542 46.5535 51.1486 46.7935 50.9908 47.0008C50.601 47.5129 50.161 47.9423 49.6764 48.3657C48.9095 49.0358 48.2522 49.794 47.435 50.4117C46.6233 51.0253 45.7744 51.6145 44.9093 52.1506C44.0637 52.6747 43.1737 53.122 42.3349 53.6578C41.4474 54.2245 40.5039 54.5259 39.5353 54.9209C38.5919 55.3057 37.6914 55.7778 36.6715 55.9256C35.5933 56.0819 34.5076 56.1877 33.4277 56.3313C32.3285 56.4774 31.2682 56.6425 30.1571 56.6505C29.7118 56.6537 29.2754 56.6973 28.8341 56.6122C28.2899 56.5072 27.8042 56.4086 27.2484 56.3754C26.2417 56.3151 25.2219 56.1681 24.2629 55.8492C23.8769 55.7208 23.6522 55.7171 23.2665 55.6897C22.8011 55.6565 22.387 55.4066 21.9267 55.355C21.5431 55.312 21.5163 55.1776 21.2063 55.0229C20.7882 54.8143 20.3704 54.695 19.9635 54.4327C19.5784 54.1845 19.1941 53.9284 18.766 53.7592C18.3293 53.5864 17.8586 53.5133 17.4245 53.3338C17.0356 53.173 16.706 52.9121 16.3581 52.6809C15.974 52.4257 15.6208 52.3349 15.2056 52.1767C14.3302 51.8434 13.5297 51.157 12.8469 50.5392C12.2266 49.9781 11.2124 49.8156 10.8882 49.0104C10.7689 48.714 10.5729 48.6652 10.3343 48.449C9.97345 48.1221 9.57759 47.8063 9.17411 47.5339C8.39271 47.0065 7.9195 46.2645 7.38888 45.5036C7.19189 45.2211 6.92892 44.7289 6.62177 44.5473C6.32306 44.3707 6.20962 44.7797 5.857 44.7797L7.23407 46.9599C7.09743 46.8567 6.90759 46.8852 6.79157 46.745C6.72267 46.6619 6.7461 46.4886 6.68165 46.4183C6.49567 46.2157 6.0813 46.3152 5.83778 46.2806C6.16204 46.7899 6.47681 47.4011 6.71482 47.8612C6.97685 48.3675 7.54192 48.6926 7.85364 49.1667C7.40165 49.2655 8.01044 49.9202 8.13735 50.0639C8.28993 50.2368 8.47298 50.3771 8.6272 50.5461C8.84927 50.7895 8.79993 50.929 8.79993 51.2434C9.05107 50.9915 9.0997 51.1139 9.31849 51.2927C9.36091 51.3274 9.54911 51.4521 9.60126 51.4749C9.66505 51.5229 9.73693 51.5589 9.81349 51.5815C9.89746 51.5684 9.98054 51.5502 10.0623 51.527C10.0831 51.5327 10.3883 51.7121 10.4397 51.7433C10.4655 51.759 10.4618 51.877 10.5397 51.9194C10.7462 52.0318 10.8649 51.9925 11.0491 52.1624C11.7151 52.7765 12.324 53.4434 13.07 53.9842C14.7401 55.1943 16.6845 56.2645 18.5656 57.1099C19.5009 57.5302 20.465 57.8361 21.4597 58.0783C22.5395 58.3414 23.6093 58.7014 24.7003 58.9056C25.541 59.0628 26.4266 59.3025 27.2818 59.3301C27.7981 59.3469 28.3124 59.3087 28.8347 59.3428C28.9751 59.3519 30.0131 59.349 29.4791 59.5898C30.6801 59.8231 31.8411 59.7406 33.0547 59.6864C33.5971 59.6621 34.1792 59.3565 34.6956 59.3769C34.7772 59.38 34.8491 59.4818 34.9714 59.4642C35.0699 59.4501 35.1322 59.3486 35.2176 59.3107C35.4442 59.2099 35.6348 59.2504 35.8768 59.2329C36.8874 59.1594 37.7794 58.8091 38.8434 58.609C39.002 58.5791 39.2773 58.5861 39.4161 58.4856C39.5853 58.3633 39.5085 58.2712 39.6124 58.1178C39.804 57.835 40.4185 57.4012 40.766 57.4298L40.5657 57.6301C40.7836 57.6172 41.1285 57.662 41.3224 57.5374C41.5008 57.4228 41.4878 57.221 41.6489 57.1022C41.788 56.9996 42.0562 57.0153 42.2228 56.9695C42.5577 56.8773 42.8961 56.7413 43.2051 56.5835C43.4785 56.4439 43.713 56.3778 43.9849 56.2831C44.1762 56.2166 44.3196 56.1047 44.5173 56.0369C44.6277 55.9992 44.7374 55.9597 44.8465 55.9183L44.9471 55.8078C45.0156 55.8434 45.0945 55.8533 45.1697 55.8359C45.5082 55.7553 45.7766 55.5154 46.0594 55.3196H45.5761C45.7029 55.2494 45.8856 55.0543 46.0329 55.0509C46.1284 55.0488 46.2185 55.1926 46.3276 55.2183C46.5821 55.278 47.4384 54.916 47.2186 54.5599C47.4152 54.4528 47.4853 54.6222 47.6332 54.5768C47.7133 54.5522 47.8741 54.419 47.9334 54.3485C48.1299 54.1149 47.9519 53.9817 48.127 53.7405C48.3153 53.4811 48.6791 53.3537 48.9265 53.16C49.0705 53.0472 49.2083 52.8465 49.3926 52.7974C49.4776 52.7748 49.7284 52.5896 49.7747 52.5081C49.8473 52.3799 49.9733 52.29 50.0815 52.1939C50.4417 51.8741 50.8243 51.5825 51.1742 51.2506C51.9049 50.5577 52.5813 49.7945 53.2138 49.0118C54.395 47.55 55.382 45.9083 56.243 44.2401C56.4817 43.7776 56.6218 43.0299 57.183 42.8756C57.4721 42.7961 57.796 42.8475 58.0916 42.8333C58.4891 42.8142 58.8265 42.6999 59.182 42.5215C58.7741 41.8842 57.6927 40.8191 57.9724 40.006C58.3453 38.9226 58.8276 37.8512 59.0835 36.7278C59.673 34.139 59.9552 31.413 59.8866 28.7593C59.8062 25.4942 59.7224 22.1642 58.6668 19.0398C57.6787 16.1153 56.1853 13.3509 54.2769 10.9247L54.2777 10.9257ZM21.1003 14.7999C21.0835 14.8224 21.0174 14.9076 21.1003 14.7999C21.2229 14.6364 21.3449 14.5681 21.4388 14.4024C21.5958 14.1258 21.7013 13.9378 21.9446 13.7481C22.1211 13.6105 22.1926 13.5069 22.3247 13.3226C22.434 13.17 22.5634 13.0291 22.6817 12.8837C22.7651 12.7812 22.8954 12.4419 22.9335 12.7096C23.1804 12.3571 23.5325 11.9473 23.6238 11.5673C23.5778 11.5427 23.5381 11.5078 23.508 11.4651C23.5293 11.3902 23.5743 11.3241 23.6361 11.2767C23.6947 11.1671 23.8405 10.9826 23.939 10.9071C24.0439 10.8269 24.1292 10.8744 24.2606 10.7831C24.4043 10.6835 24.5056 10.4564 24.6227 10.3237C24.7357 10.1957 24.9329 10.0612 24.992 9.89495C25.0296 9.78948 24.9462 9.59589 24.9981 9.52323C25.068 9.65682 25.1328 9.79311 25.2003 9.928C25.2872 9.71096 25.4108 9.49628 25.4871 9.27784C25.5749 9.02682 25.4755 9.04569 25.5158 8.85995C25.5645 8.63518 25.8739 8.35452 26.0056 8.16467C26.212 7.86702 26.4193 7.56995 26.6236 7.27089C27.3722 6.1746 28.0456 5.00132 28.999 4.06382C32.3588 8.29721 35.3671 12.7494 38.3675 17.2401C36.7221 17.2401 35.0999 17.1452 33.4555 17.271C31.8199 17.396 30.1889 17.5616 28.5485 17.6134C25.3134 17.7156 22.0687 17.9857 18.8315 17.9431C19.5947 16.9004 20.3122 15.8245 21.1003 14.7999V14.7999ZM41.0876 23.0071L41.171 26.4472C40.8457 25.5272 40.2969 24.7208 39.7642 23.9116C39.1946 23.0495 38.514 22.2289 37.6881 21.6005C36.8736 20.9808 35.9232 20.5618 34.9827 20.174C34.9827 20.174 39.3879 20.0646 39.9282 20.0659C40.3321 20.0668 40.4985 20.2152 40.7249 20.541C41.2345 21.2741 41.0674 22.1502 41.0878 23.0071H41.0876ZM20.0676 20.831C21.676 20.7578 23.2853 20.6978 24.8921 20.5943C23.8916 21.2005 23.052 22.0208 22.2649 22.8774C21.4619 23.7513 20.6133 24.5999 19.9602 25.5967C20.0451 24.0098 20.1227 22.4201 20.0676 20.8309V20.831ZM21.5762 41.8335C21.29 41.8523 20.3973 42.0124 20.2022 41.7815C19.9959 41.5377 20.1792 40.8088 20.1786 40.4313C20.072 38.8069 19.8833 37.1852 19.8906 35.5553C20.2626 36.4202 20.6369 37.1854 21.1899 37.9481C21.4509 38.3081 21.6832 38.7054 21.9759 39.0415C22.1661 39.2598 22.783 39.4131 22.8157 39.7094C22.8392 39.9229 22.5674 39.9619 22.7294 40.2081C22.8538 40.397 23.2381 40.4825 23.4266 40.5817C23.7498 40.7517 24.0218 40.9957 24.3378 41.1769C24.78 41.4304 25.2917 41.5152 25.7496 41.7357C24.3607 41.762 22.9623 41.7419 21.5761 41.8335H21.5762ZM25.4386 39.4625C25.4884 39.4855 25.5924 39.529 25.5293 39.5012L25.521 39.4976C24.7399 39.1574 24.0007 38.8223 23.3867 38.2167C23.0863 37.9203 22.7365 37.6329 22.4682 37.3073C22.2117 36.9961 22.0425 36.6225 21.841 36.2761C21.447 35.5986 20.8119 34.9638 20.5476 34.2342C20.4735 34.0294 20.2944 33.617 20.0419 33.9751C19.8743 34.2125 20.1324 34.5917 20.1955 34.8231C20.0918 34.8237 19.9633 34.8774 19.8983 34.9602C19.9214 33.7474 19.8461 32.5349 19.8769 31.3221C20.2977 31.6142 20.5612 30.9756 20.6554 30.6702C20.722 30.4544 20.7275 30.2229 20.8013 30.0105C20.8397 29.9004 21.06 29.6294 21.0343 29.519C20.9702 29.2437 20.7083 29.4199 20.8356 29.0679C20.9215 28.8302 21.1507 28.6703 21.2394 28.4055C21.3098 28.1953 21.4455 27.5076 21.6386 27.384L21.6218 27.5522C22.0381 27.3072 22.2664 27.1356 22.3706 26.6542C22.4651 26.2174 22.7747 25.9778 23.0271 25.6228C23.3033 25.2343 23.5249 24.9411 23.9421 24.6972C24.3055 24.4848 24.5968 24.0095 24.9812 23.8748C25.2098 23.7948 25.3587 23.7837 25.609 23.6258C25.7454 23.5398 25.941 23.4227 26.0131 23.2707C26.0689 23.1533 26.0075 23.0838 26.0918 22.9802C26.2991 22.7255 26.9921 22.5731 27.2913 22.4328C27.729 22.2275 28.1781 21.9481 28.6789 21.9589C28.3758 22.5307 29.4036 22.1721 29.6601 22.2576C29.6601 21.7133 29.7773 21.6126 30.3348 21.6042C30.946 21.5949 31.5759 21.575 32.1811 21.6735C33.3799 21.8683 34.385 22.6289 35.3566 23.3051C36.3671 24.0083 37.3249 24.6508 38.0263 25.6932C38.3307 26.1457 38.5746 26.6334 38.7186 27.1606C38.8942 27.8032 39.1294 28.5669 39.0793 29.2344C39.0356 29.8169 38.8926 30.3886 38.8478 30.9738C38.7916 31.7065 38.6303 32.3304 38.2939 32.9872C38.2219 33.1281 38.0176 33.3582 38.0625 33.5253C38.1044 33.6815 38.2554 33.6459 38.2637 33.8065C38.2713 33.9508 38.0574 34.3133 38.0061 34.4426C37.9057 34.6962 37.798 34.947 37.683 35.1944C36.7448 37.2118 35.2831 38.9341 33.1135 39.6326C30.8065 40.3752 27.6644 40.6385 25.4386 39.4623V39.4625ZM35.6071 41.3285C35.9154 41.1483 36.2096 40.9448 36.4918 40.7263C36.6869 40.5752 36.9203 40.2747 37.1426 40.1656C37.1391 40.1689 37.1356 40.1722 37.1321 40.1755C37.0667 40.2218 36.9943 40.3081 36.9479 40.3544C36.9648 40.3376 36.9834 40.3215 37.0012 40.3051C37.0205 40.2889 37.0679 40.2467 37.1614 40.1613C37.5282 39.7953 37.989 39.5424 38.3692 39.1915C38.7227 38.8652 39.0339 38.4872 39.3185 38.1004C39.9428 37.2522 40.3915 36.2983 40.858 35.359C40.8819 37.2911 41.1008 39.2141 41.353 41.1279L35.6068 41.3285H35.6071ZM53.6421 40.8745C52.6132 40.83 51.5706 40.8793 50.5404 40.8801C49.3308 40.881 48.1262 40.9114 46.9194 40.9946C46.3794 41.0319 45.84 41.0403 45.299 41.0574C45.0867 41.0642 44.8178 41.1219 44.6081 41.0907C44.3787 41.0565 44.2906 40.9234 44.1125 40.7894L44.0498 40.914C43.8917 40.747 43.88 40.4393 43.9008 40.2258C43.9085 40.1461 43.9596 40.0313 43.9917 39.9243C44.1601 39.9589 44.3286 39.4072 44.3174 39.313C44.2993 39.162 44.2417 39.06 44.1546 38.9417C44.0699 38.8268 44.0524 38.9406 43.9958 38.7858C43.9553 38.6752 44.0099 38.3911 44.0079 38.2809C44.1646 38.3986 44.1603 38.1192 44.2912 38.0229C44.4164 37.9308 44.5749 37.9402 44.7251 37.9402C44.5943 37.7113 44.593 37.4668 44.5461 37.2158C44.4681 36.7979 44.4462 36.8355 44.8604 36.6967C44.6158 36.5743 44.5222 36.5925 44.4411 36.3384C44.3785 36.1424 44.4395 35.8731 44.4267 35.6654C44.4132 35.4495 44.4016 35.1913 44.3101 34.9912C44.2016 34.7538 43.9625 34.7476 43.9734 34.5247C44.1174 34.5817 44.261 34.6398 44.4049 34.6974C44.3134 34.3774 44.1365 34.0856 44.0559 33.7628C43.9762 33.4432 44.0203 33.127 44.0203 32.8013C44.0939 32.8188 44.1673 32.837 44.2404 32.856C44.2229 32.6449 44.2575 32.5292 44.1858 32.3333C44.1508 32.2378 44.0666 32.1569 44.0308 32.0528C43.9299 31.7587 44.0004 31.3986 44.0004 31.0956C44.0672 31.1218 44.1339 31.1485 44.2004 31.1756C44.1489 30.9575 44.3874 30.8149 44.5162 30.6854C44.2698 30.6826 44.2698 30.7221 44.1974 30.544C44.1528 30.434 44.1934 30.2281 44.1849 30.108C44.1621 29.7815 44.0285 29.5548 44.0361 29.2531C44.0666 28.0544 44.0967 26.8557 44.1266 25.6569C46.5658 28.8758 48.485 32.4622 50.917 35.687C51.5694 36.552 54.103 39.8769 54.2532 40.0752C54.3432 40.194 54.6635 40.4893 54.6674 40.6661C54.6764 41.0681 53.8926 40.8853 53.642 40.8745H53.6421ZM56.6829 26.8796C56.5989 26.7971 56.5153 26.714 56.4322 26.6305C56.3823 26.7807 56.3778 27.1724 56.1206 27.086C56.0904 27.5063 56.2212 27.9201 56.177 28.3407C56.2473 28.2905 56.3193 28.2425 56.3927 28.1972C56.3335 28.5027 56.6676 28.7956 56.6259 29.0986C56.5798 29.434 56.3492 29.2035 56.236 29.3358C56.1054 29.4886 56.169 30.2995 56.2461 30.447C56.318 30.5843 56.4448 30.6231 56.4976 30.7913C56.5663 31.0103 56.4976 31.2806 56.4557 31.4967C56.2723 32.4426 56.3344 33.3717 56.2514 34.3241C56.2029 34.8813 56.1089 34.557 55.7599 34.5599C55.3529 34.5633 55.6145 35.1492 55.681 35.3808C55.3692 35.354 55.4351 35.7678 55.4258 35.9717C55.4094 36.3402 55.2255 36.6219 55.183 36.9715C54.0402 35.3047 53.0303 33.5509 51.8648 31.8994C50.6584 30.1898 49.493 28.4525 48.2935 26.7382C47.1055 25.0404 46.0385 23.2635 44.8662 21.5553C44.641 21.2273 44.2862 20.8945 44.1534 20.5196C44.0199 20.143 44.0614 19.5905 44.0578 19.1971C44.0538 18.7715 44.0789 18.3473 44.0647 17.9222C44.0492 17.4586 44.1265 17.3563 44.4428 17.0401C43.6745 17.0401 42.9062 17.0417 42.1379 17.0417C41.6369 17.0417 41.2839 16.5012 41.0331 16.1366C40.6544 15.5857 40.2834 15.0295 39.9088 14.4758C38.9849 13.1102 37.9853 11.7949 36.994 10.478C35.1281 7.99932 33.3907 5.41581 31.3728 3.05495C32.6539 3.2155 33.9453 3.22089 35.2254 3.40886C36.4853 3.59378 37.7399 3.84526 38.9652 4.19284C41.279 4.84897 43.4995 5.82186 45.6305 6.92917C46.101 7.17374 46.5858 7.40307 47.0407 7.67612C47.5561 7.98561 47.9475 8.413 48.3579 8.84577C49.2233 9.75819 50.0399 10.708 50.854 11.6658C52.2364 13.2921 53.7637 14.8851 54.5899 16.8872C55.1018 18.1276 55.4612 19.4797 55.7477 20.7887C55.8959 21.4658 55.8838 22.1537 56.0168 22.8234C56.0701 23.0907 56.1202 23.3586 56.1671 23.6271C56.1811 23.7071 56.2815 23.8868 56.2835 23.8822C56.3501 24.0341 56.371 24.2713 56.5379 24.1045C56.7149 25.0153 56.7185 25.956 56.6824 26.8796H56.6829ZM8.32099 28.6912L8.47357 28.5852C8.13993 28.6815 8.1486 28.3849 8.24118 28.1735C8.3722 27.8748 8.69329 27.6784 8.86907 27.4062C8.95907 27.5011 9.05728 27.587 9.16989 27.6515C9.39009 27.3747 9.61216 27.0996 9.84314 26.8317C10.0773 27.1521 10.4157 27.0067 10.1524 27.4581C9.99114 27.7344 9.76837 27.9603 9.55989 28.1987C9.61872 28.3289 9.74528 28.3998 9.72583 28.581C9.69044 28.9113 9.1311 29.5126 8.90036 29.7578C8.69482 29.9761 8.50017 29.8754 8.35286 30.1255C8.27048 30.2652 8.31946 30.394 8.18564 30.5382C8.09751 30.6331 7.95735 30.6763 7.86384 30.7672C7.68724 30.9394 7.62232 31.2383 7.40997 31.3693C7.14759 31.5313 6.89388 31.4925 6.90337 31.1865C6.72993 31.2137 6.56247 31.2702 6.39267 31.3127C6.57747 31.0125 6.74903 30.6786 6.97556 30.4071C7.13868 30.2115 7.35583 30.071 7.52306 29.8801C7.70013 29.6778 7.77466 29.4253 7.94247 29.2195C8.0954 29.0321 8.22056 28.9162 8.32099 28.691V28.6912Z" fill="#0D0D0D"/>
</svg>
