<svg width="60" height="60" viewBox="0 0 60 60" fill="none" xmlns="http://www.w3.org/2000/svg">
<path d="M60 29.2225C60 25.2475 55.0225 21.48 47.39 19.145C49.1525 11.3675 48.37 5.1775 44.92 3.195C44.084 2.7268 43.1379 2.49113 42.18 2.5125V5.2375C42.7425 5.2375 43.195 5.35 43.575 5.5575C45.2375 6.5125 45.96 10.1425 45.3975 14.815C45.2625 15.965 45.0425 17.175 44.7725 18.41C42.2166 17.7941 39.6225 17.3489 37.0075 17.0775C35.4496 14.9282 33.75 12.8853 31.92 10.9625C35.9075 7.2575 39.65 5.2275 42.195 5.2275V2.5C38.83 2.5 34.4275 4.8975 29.975 9.055C25.525 4.925 21.12 2.55 17.7575 2.55V5.275C20.29 5.275 24.045 7.295 28.0325 10.975C26.32 12.775 24.6075 14.815 22.98 17.0775C20.3596 17.3459 17.7609 17.7953 15.2025 18.4225C14.92 17.2 14.7125 16.015 14.565 14.8775C13.99 10.2025 14.7 6.5725 16.3525 5.6075C16.7175 5.3875 17.195 5.2875 17.7575 5.2875V2.5625C16.7325 2.5625 15.8 2.7825 14.995 3.245C11.5575 5.2275 10.7875 11.4025 12.56 19.1575C4.9525 21.5075 0 25.26 0 29.2225C0 33.1975 4.9775 36.965 12.61 39.2975C10.8475 47.0775 11.63 53.2675 15.08 55.2475C15.875 55.7125 16.805 55.9325 17.83 55.9325C21.195 55.9325 25.5975 53.535 30.05 49.3775C34.5 53.51 38.9025 55.8825 42.2675 55.8825C43.2328 55.9029 44.1861 55.6665 45.03 55.1975C48.4675 53.2175 49.2375 47.0425 47.465 39.2875C55.0475 36.9525 60 33.185 60 29.2225ZM44.075 21.065C43.6 22.6996 43.0494 24.3114 42.425 25.895C41.4029 23.9069 40.2806 21.9719 39.0625 20.0975C40.8 20.355 42.475 20.6725 44.0775 21.065H44.075ZM38.475 34.09C37.5225 35.74 36.5425 37.3075 35.5275 38.7625C31.8581 39.0859 28.1676 39.0901 24.4975 38.775C22.3924 35.768 20.5513 32.5844 18.995 29.26C20.549 25.9278 22.3822 22.733 24.475 19.71C28.1435 19.3859 31.8332 19.3809 35.5025 19.695C36.5175 21.15 37.51 22.705 38.4625 24.345C39.3925 25.945 40.2375 27.57 41.0075 29.21C40.229 30.8699 39.3841 32.4979 38.475 34.09V34.09ZM42.425 32.5C43.085 34.1375 43.65 35.7775 44.1125 37.3675C42.5125 37.76 40.8225 38.09 39.075 38.345C40.2881 36.4535 41.4062 34.5028 42.425 32.5V32.5ZM30.025 45.55C28.8875 44.375 27.75 43.0675 26.625 41.635C27.725 41.685 28.85 41.7225 29.9875 41.7225C31.1375 41.7225 32.275 41.6975 33.3875 41.635C32.2875 43.0675 31.15 44.375 30.025 45.55ZM20.925 38.345C19.2394 38.1008 17.5659 37.7787 15.91 37.38C16.3625 35.8025 16.925 34.175 17.56 32.55C18.0625 33.525 18.59 34.505 19.165 35.485C19.74 36.4625 20.325 37.4175 20.925 38.345ZM29.9625 12.895C31.1 14.07 32.2375 15.3775 33.3625 16.81C32.2625 16.76 31.1375 16.7225 30 16.7225C28.85 16.7225 27.7125 16.7475 26.6 16.81C27.7 15.3775 28.8375 14.07 29.9625 12.895ZM20.9125 20.1C19.6997 21.9873 18.5816 23.9339 17.5625 25.9325C16.9205 24.3386 16.3574 22.7142 15.875 21.065C17.475 20.685 19.165 20.355 20.9125 20.1ZM9.845 35.41C5.515 33.565 2.715 31.1425 2.715 29.2225C2.715 27.3025 5.515 24.8675 9.845 23.035C10.895 22.5825 12.045 22.1775 13.2325 21.8C13.93 24.195 14.8475 26.69 15.9825 29.2475C14.9109 31.653 14.0046 34.1287 13.27 36.6575C12.1086 36.2979 10.9656 35.8816 9.845 35.41V35.41ZM16.425 52.885C14.7625 51.935 14.04 48.3 14.6025 43.63C14.7375 42.48 14.9575 41.2675 15.2275 40.0325C17.6225 40.62 20.24 41.0725 22.9925 41.3675C24.5504 43.5167 26.25 45.5596 28.08 47.4825C24.0925 51.1875 20.35 53.2175 17.805 53.2175C17.3249 53.2227 16.8508 53.1094 16.425 52.8875V52.885ZM45.435 43.5675C46.01 48.24 45.3 51.8725 43.6475 52.8375C43.2825 53.0575 42.805 53.155 42.2425 53.155C39.71 53.155 35.955 51.1375 31.9675 47.455C33.68 45.66 35.3925 43.6175 37.02 41.355C39.6404 41.0866 42.2391 40.6372 44.7975 40.01C45.08 41.245 45.2975 42.43 45.435 43.5675V43.5675ZM50.1425 35.41C49.0925 35.8625 47.9425 36.2675 46.755 36.645C46.0074 34.1033 45.0887 31.6151 44.005 29.1975C45.13 26.655 46.0325 24.1725 46.7175 21.7875C47.93 22.165 49.0775 22.5825 50.155 23.035C54.485 24.88 57.285 27.3025 57.285 29.2225C57.2725 31.1425 54.4725 33.5775 50.1425 35.41V35.41Z" fill="#0D0D0D"/>
<path d="M29.987 34.8124C31.4695 34.8124 32.8914 34.2235 33.9397 33.1752C34.988 32.1268 35.577 30.705 35.577 29.2224C35.577 27.7399 34.988 26.318 33.9397 25.2697C32.8914 24.2214 31.4695 23.6324 29.987 23.6324C28.5044 23.6324 27.0826 24.2214 26.0342 25.2697C24.9859 26.318 24.397 27.7399 24.397 29.2224C24.397 30.705 24.9859 32.1268 26.0342 33.1752C27.0826 34.2235 28.5044 34.8124 29.987 34.8124V34.8124Z" fill="#0D0D0D"/>
</svg>
