<svg width="60" height="60" viewBox="0 0 60 60" fill="none" xmlns="http://www.w3.org/2000/svg">
<path d="M15.8925 22.5C9.3 24.2 5 27.1125 5 30.4375C5 35.705 16.0125 40 29.625 40C31.475 40 32.775 39.9025 34.5 39.7575" stroke="#0D0D0D" stroke-width="2" stroke-linecap="round" stroke-linejoin="round"/>
<path d="M24.5928 39.7499C23.5603 38.2599 22.5778 36.9174 21.6428 35.2499C14.7653 22.9999 12.9228 10.8249 17.5678 8.06745C20.4428 6.32495 25.1853 8.69995 30.0028 13.7024" stroke="#0D0D0D" stroke-width="2" stroke-linecap="round" stroke-linejoin="round"/>
<path d="M16.0723 38.4675C14.3173 45.1875 14.6723 50.2575 17.4723 51.955C21.9298 54.655 30.9398 47.06 37.5798 34.945C38.4798 33.27 39.2873 31.6225 39.9998 30" stroke="#0D0D0D" stroke-width="2" stroke-linecap="round" stroke-linejoin="round"/>
<path d="M30 46.3C34.82 51.3 39.5425 53.675 42.445 51.9325C47.07 49.1775 45.2475 37.0025 38.3625 24.75C37.4025 23.0575 36.42 21.74 35.4125 20.25" stroke="#0D0D0D" stroke-width="2" stroke-linecap="round" stroke-linejoin="round"/>
<path d="M44.15 37.5C50.68 35.7825 55 32.875 55 29.56C55 24.285 43.98 20 30.3875 20C28.52 20 27.2225 20.0725 25.5 20.2175" stroke="#0D0D0D" stroke-width="2" stroke-linecap="round" stroke-linejoin="round"/>
<path d="M20 30C20.7125 28.35 21.5175 26.73 22.42 25.055C29.0375 12.945 38.0525 5.33001 42.535 8.05251C45.31 9.75001 45.69 14.8175 43.935 21.535" stroke="#0D0D0D" stroke-width="2" stroke-linecap="round" stroke-linejoin="round"/>
<path d="M30.6501 30.0374H30.6251C30.6001 30.3624 30.3251 30.6374 29.9751 30.6374C29.8077 30.6291 29.6498 30.5573 29.5336 30.4364C29.4174 30.3156 29.3518 30.155 29.3501 29.9874C29.3501 29.6374 29.6251 29.3624 29.9501 29.3624H29.9251C30.2501 29.3374 30.5501 29.6374 30.5501 29.9624" stroke="#0D0D0D" stroke-width="2" stroke-linecap="round" stroke-linejoin="round"/>
</svg>
