<svg width="60" height="60" viewBox="0 0 60 60" fill="none" xmlns="http://www.w3.org/2000/svg">
<g clip-path="url(#clip0_95_484)">
<path d="M59.9812 35.85C59.9624 36.4256 59.1993 37.0613 57.6468 37.8713C54.4443 39.5419 37.8618 46.3669 34.3255 48.2025C30.7912 50.0475 28.8374 50.0288 26.0437 48.69C23.2499 47.3625 5.6043 40.2225 2.42055 38.7094C0.838047 37.9481 0.0280469 37.3125 -0.00195312 36.7069V42.7706C-0.00195312 43.3763 0.838047 44.01 2.42055 44.7731C5.6043 46.2975 23.2612 53.4263 26.0437 54.7538C28.8374 56.0925 30.7893 56.1113 34.3255 54.2663C37.8599 52.4306 54.4424 45.6038 57.6468 43.935C59.278 43.095 59.9999 42.4313 59.9999 41.835V35.8575C59.9999 35.8481 59.9905 35.8481 59.9812 35.8481V35.85ZM59.9812 25.9669C59.9512 26.5331 59.1993 27.1688 57.6468 27.9881C54.4443 29.6475 37.8618 36.4744 34.3255 38.31C30.7912 40.155 28.8374 40.1363 26.0437 38.8088C23.2499 37.47 5.6043 30.3413 2.42055 28.8188C0.838047 28.0669 0.0280469 27.4219 -0.00195312 26.8163V32.88C-0.00195312 33.4856 0.838047 34.1306 2.42055 34.8825C5.6043 36.4069 23.2499 43.5356 26.0437 44.8725C28.8374 46.2 30.7893 46.2206 34.3255 44.385C37.8599 42.54 54.4424 35.7225 57.6468 34.0538C59.278 33.2044 59.9999 32.5406 59.9999 31.9444V25.9669H59.9812V25.9669ZM59.9812 15.7031C60.0112 15.0975 59.2199 14.5613 57.6074 13.9744C54.493 12.8325 37.9987 6.27002 34.843 5.10752C31.6893 3.9544 30.3993 4.00315 26.6887 5.33252C22.978 6.67127 5.42805 13.5544 2.3043 14.775C0.742422 15.39 -0.0207031 15.9563 0.00929688 16.5619V22.6256C0.00929688 23.2313 0.839922 23.865 2.4318 24.6281C5.60617 26.1525 23.2612 33.2813 26.0549 34.6181C28.8374 35.9456 30.8005 35.9663 34.3368 34.1194C37.8618 32.2838 54.4537 25.4569 57.658 23.7975C59.2799 22.9481 60.0018 22.2844 60.0018 21.6881V15.7013L59.9812 15.7031ZM21.4837 21.4463L35.3905 19.3181L31.1905 25.47L21.4837 21.4463ZM52.2355 15.8981L43.1249 19.5019L34.903 16.2506L44.0043 12.6563L52.2355 15.8981ZM28.0949 9.94127L26.7468 7.46065L30.9468 9.10127L34.9012 7.81127L33.8268 10.3706L37.8599 11.8838L32.6643 12.42L31.4924 15.2231L29.6174 12.0975L23.6118 11.5613L28.0949 9.94127ZM17.7337 13.4475C21.8455 13.4475 25.1662 14.7375 25.1662 16.3181C25.1662 17.91 21.8362 19.1981 17.7337 19.1981C13.6312 19.1981 10.3012 17.9081 10.3012 16.3181C10.3012 14.7356 13.6312 13.4475 17.7337 13.4475Z" fill="#0D0D0D"/>
</g>
<defs>
<clipPath id="clip0_95_484">
<rect width="60" height="60" fill="white"/>
</clipPath>
</defs>
</svg>
