<svg width="16" height="16" viewBox="0 0 16 16" fill="none" xmlns="http://www.w3.org/2000/svg">
<path fill-rule="evenodd" clip-rule="evenodd" d="M7.20346 9.87856L9.64146 13.8339C9.74813 14.0072 9.91479 14.0052 9.98213 13.9959C10.0495 13.9866 10.2115 13.9452 10.2701 13.7486L13.3188 3.4519C13.3721 3.2699 13.2741 3.1459 13.2301 3.1019C13.1875 3.0579 13.0655 2.9639 12.8888 3.0139L2.58479 6.03123C2.38946 6.08857 2.34679 6.25257 2.33746 6.3199C2.32813 6.38857 2.32546 6.55857 2.49813 6.66723L6.49879 9.16923L10.0335 5.59723C10.2275 5.40123 10.5441 5.39923 10.7408 5.59323C10.9375 5.78723 10.9388 6.10457 10.7448 6.30057L7.20346 9.87856ZM9.93013 14.9999C9.46613 14.9999 9.04079 14.7639 8.79013 14.3586L6.20546 10.1646L1.96813 7.51457C1.51146 7.22857 1.27279 6.71923 1.34679 6.1839C1.42013 5.64857 1.78746 5.22323 2.30346 5.0719L12.6075 2.05457C13.0815 1.9159 13.5895 2.04723 13.9388 2.39523C14.2881 2.74657 14.4181 3.2599 14.2768 3.7359L11.2281 14.0319C11.0755 14.5499 10.6488 14.9159 10.1148 14.9872C10.0521 14.9952 9.99146 14.9999 9.93013 14.9999Z" fill="#FFFFFE"/>
</svg>
