<svg width="61" height="60" viewBox="0 0 61 60" fill="none" xmlns="http://www.w3.org/2000/svg">
<path d="M15.2188 23.9844C17.2182 15.9641 22.2193 11.9531 30.2188 11.9531C42.2188 11.9531 43.7187 20.9766 49.7187 22.4804C53.7193 23.4836 57.2187 21.9797 60.2188 17.9687C58.2193 25.989 53.2182 30 45.2188 30C33.2187 30 31.7188 20.9766 25.7188 19.4727C21.7182 18.4696 18.2188 19.9734 15.2188 23.9844ZM0.21875 42.0313C2.2182 34.011 7.2193 30 15.2188 30C27.2188 30 28.7187 39.0234 34.7187 40.5273C38.7193 41.5304 42.2187 40.0266 45.2188 36.0156C43.2193 44.0359 38.2182 48.0469 30.2188 48.0469C18.2187 48.0469 16.7187 39.0234 10.7187 37.5196C6.7182 36.5164 3.21875 38.0203 0.21875 42.0313Z" fill="#0D0D0D"/>
</svg>
