<svg width="61" height="60" viewBox="0 0 61 60" fill="none" xmlns="http://www.w3.org/2000/svg">
<path d="M58.8777 6.8291L42.6224 9.79195L45.4471 0L22.8894 4.42008L22.538 10.3545L2.77479 6.82195C1.41366 6.74273 0.620532 7.7202 1.18256 9.07734L29.7829 59.2316C30.3985 60.2365 31.8157 60.2757 32.4372 59.2316L60.4814 9.07254C61.1142 7.93863 60.1446 6.60949 58.8777 6.8291ZM31.1043 57.8566L3.09413 8.73703L22.4292 12.193L21.5178 27.5873L29.4434 25.7583L27.2335 36.5798L33.2539 34.7508L30.2662 49.2114C30.1173 50.157 31.3491 50.66 31.9583 49.3065L49.5623 14.1746L40.8746 15.8514L42.0565 11.7543L58.5694 8.74441L31.1043 57.8566Z" fill="#0D0D0D"/>
</svg>
