<svg width="61" height="60" viewBox="0 0 61 60" fill="none" xmlns="http://www.w3.org/2000/svg">
<path d="M52.9922 45.3019L31.3322 57.4988V47.9963L44.8285 40.6031L52.9922 45.3019ZM54.4772 43.965V18.4481L46.5479 23.0081V39.405L54.4772 43.965ZM7.76723 45.3019L29.4272 57.4988V47.9963L15.931 40.6031L7.76723 45.3019ZM6.28223 43.965V18.4481L14.2116 23.0081V39.405L6.28223 43.965ZM7.21035 16.7963L29.4272 4.28625V13.4756L15.091 21.3281L7.21035 16.7963ZM53.5491 16.7963L31.3322 4.28625V13.4756L45.6685 21.3281L53.5491 16.7963ZM29.4272 45.84L16.1166 38.5444V24.1013L29.4272 31.7569V45.84ZM31.3322 45.84L44.6429 38.5444V24.1013L31.3322 31.7569V45.84ZM17.0147 22.4325L30.3835 15.1181L43.7522 22.4325L30.3835 30.1181L17.0147 22.4325Z" fill="#0D0D0D"/>
</svg>
