<svg width="60" height="60" viewBox="0 0 60 60" fill="none" xmlns="http://www.w3.org/2000/svg">
<g clip-path="url(#clip0_95_488)">
<path d="M17.3124 3.23523C15.692 3.23875 14.1057 4.16101 13.2899 5.56796L0.602314 27.6672C-0.200771 29.0779 -0.200771 30.9219 0.602314 32.3327L13.2899 54.4319C14.1057 55.8388 15.692 56.7614 17.3124 56.7646H42.6876C44.3081 56.7611 45.8942 55.8388 46.7101 54.4319L59.3977 32.3327C60.2007 30.9219 60.2007 29.0779 59.3977 27.6672L46.7101 5.56796C45.8942 4.16101 44.3081 3.23839 42.6876 3.23523H17.3124V3.23523ZM22.0259 16.1635C22.2197 16.1675 22.4076 16.2797 22.5043 16.4484L29.9996 29.8314L37.4774 16.4484C37.5771 16.2747 37.7738 16.1617 37.9734 16.1635H42.3504C42.7378 16.167 43.0281 16.6564 42.8464 17.0004L35.599 29.9999L42.8464 42.9816C43.0453 43.3277 42.748 43.8398 42.3502 43.8364H37.9734C37.7703 43.8346 37.5725 43.7139 37.4774 43.5337L29.9996 30.1465L22.5043 43.5337C22.412 43.7089 22.2231 43.8284 22.0259 43.8364H17.649C17.2514 43.8399 16.9541 43.3277 17.1529 42.9816L24.4004 29.9999L17.1529 17.0004C16.9791 16.6865 17.1911 16.2305 17.5427 16.1635H22.0259Z" fill="#0D0D0D"/>
</g>
<defs>
<clipPath id="clip0_95_488">
<rect width="60" height="60" fill="white"/>
</clipPath>
</defs>
</svg>
